<svg xmlns="http://www.w3.org/2000/svg" xmlns:xlink="http://www.w3.org/1999/xlink" xmlns:lucid="lucid" width="1921.5" height="1473"><g transform="translate(-59.5 -48)" lucid:page-tab-id="0_0"><path d="M0 0h2078.67v1703.3H0z" fill="#fff"/><path d="M1100 820h360v200h-360z" fill="#147eba" fill-opacity=".13"/><path d="M1100 820h56v56h-56v-56z" stroke="#fff" stroke-opacity="0" fill="#147eba"/><path d="M1143.38 842.18c-.15-.17-.34-.25-.56-.25h-5.15v-5.58c-.03-2.54-.97-4.7-2.84-6.4-1.9-1.84-4.15-2.75-6.77-2.75-2.65 0-4.9.83-6.8 2.62-1.9 1.7-2.87 3.87-2.9 6.4v5.66h-5.15c-.24 0-.43.1-.58.25-.16.17-.22.34-.22.6V868c0 .43.34.8.8.8h29.6c.46 0 .8-.37.8-.8v-25.28c0-.2-.06-.38-.22-.54zm-23.46-5.9c.03-2.13.8-3.88 2.37-5.3 1.6-1.5 3.52-2.2 5.73-2.2 2.22 0 4.12.75 5.7 2.25 1.54 1.4 2.32 3.2 2.32 5.32v5.58h-16.16zm22.1 30.94h-28.03v-23.7h28z" stroke="#fff" stroke-opacity="0" fill="#fff"/><path d="M1127.2 857.3v6.25h1.6v-6.23c2.13-.4 3.62-2.2 3.63-4.35 0-2.43-1.97-4.4-4.4-4.43-2.2-.03-4.07 1.5-4.44 3.68-.42 2.4 1.2 4.68 3.6 5.1zm.82-7.15c.78 0 1.44.27 2 .83.54.55.82 1.2.8 2 .03 1.54-1.2 2.8-2.74 2.8h-.06c-1.56.13-2.92-1.04-3.04-2.6-.12-1.56 1.05-2.93 2.6-3.03.16-.02.3-.02.44 0z" stroke="#fff" stroke-opacity="0" fill="#fff"/><use xlink:href="#a" transform="matrix(1,0,0,1,1171,840) translate(0 14.222222222222223)"/><use xlink:href="#b" transform="matrix(1,0,0,1,1171,840) translate(60.14814814814815 14.222222222222223)"/><use xlink:href="#c" transform="matrix(1,0,0,1,1171,840) translate(121.38271604938274 14.222222222222223)"/><path d="M440 820h360v200H440z" fill="#248814" fill-opacity=".13"/><path d="M440 820h56v56h-56v-56z" stroke="#fff" stroke-opacity="0" fill="#248814"/><path d="M483.38 842.18c-.15-.17-.34-.25-.56-.25h-5.15v-5.58c-.03-2.54-.97-4.7-2.84-6.4-1.9-1.84-4.15-2.75-6.77-2.75-2.65 0-4.9.83-6.8 2.62-1.9 1.7-2.87 3.87-2.9 6.4v5.66h-5.15c-.24 0-.43.1-.58.25-.16.17-.22.34-.22.6V868c0 .43.34.8.8.8h29.6c.46 0 .8-.37.8-.8v-25.28c0-.2-.06-.38-.22-.54zm-23.46-5.9c.03-2.13.8-3.88 2.37-5.3 1.6-1.5 3.52-2.2 5.73-2.2 2.22 0 4.12.75 5.7 2.25 1.54 1.4 2.32 3.2 2.32 5.32v5.58H459.9zm22.1 30.94h-28.03v-23.7h28z" stroke="#fff" stroke-opacity="0" fill="#fff"/><path d="M467.2 857.3v6.25h1.6v-6.23c2.13-.4 3.62-2.2 3.63-4.35 0-2.43-1.97-4.4-4.4-4.43-2.2-.03-4.06 1.5-4.44 3.68-.42 2.4 1.2 4.68 3.6 5.1zm.82-7.15c.78 0 1.44.27 2 .83.54.55.82 1.2.8 2 .03 1.54-1.2 2.8-2.74 2.8h-.06c-1.56.13-2.92-1.04-3.04-2.6-.12-1.56 1.05-2.93 2.6-3.03.16-.02.3-.02.44 0z" stroke="#fff" stroke-opacity="0" fill="#fff"/><use xlink:href="#d" transform="matrix(1,0,0,1,511,840) translate(0 14.222222222222223)"/><use xlink:href="#b" transform="matrix(1,0,0,1,511,840) translate(53.23456790123458 14.222222222222223)"/><use xlink:href="#c" transform="matrix(1,0,0,1,511,840) translate(114.46913580246915 14.222222222222223)"/><path d="M440 1180h360v200H440z" fill="#248814" fill-opacity=".13"/><path d="M440 1180h56v56h-56v-56z" stroke="#fff" stroke-opacity="0" fill="#248814"/><path d="M483.38 1202.18c-.15-.17-.34-.25-.56-.25h-5.15v-5.58c-.03-2.54-.97-4.7-2.84-6.4-1.9-1.84-4.15-2.75-6.77-2.75-2.65 0-4.9.83-6.8 2.62-1.9 1.7-2.87 3.87-2.9 6.4v5.66h-5.15c-.24 0-.43.1-.58.25-.16.17-.22.34-.22.6V1228c0 .43.34.8.8.8h29.6c.46 0 .8-.37.8-.8v-25.28c0-.2-.06-.38-.22-.54zm-23.46-5.9c.03-2.13.8-3.88 2.37-5.3 1.6-1.5 3.52-2.2 5.73-2.2 2.22 0 4.12.75 5.7 2.25 1.54 1.4 2.32 3.2 2.32 5.32v5.58H459.9zm22.1 30.94h-28.03v-23.7h28z" stroke="#fff" stroke-opacity="0" fill="#fff"/><path d="M467.2 1217.3v6.25h1.6v-6.23c2.13-.4 3.62-2.2 3.63-4.35 0-2.43-1.97-4.4-4.4-4.43-2.2-.03-4.06 1.5-4.44 3.68-.42 2.4 1.2 4.68 3.6 5.1zm.82-7.15c.78 0 1.44.27 2 .82.54.56.82 1.22.8 2 .03 1.55-1.2 2.8-2.74 2.82h-.06c-1.56.1-2.92-1.06-3.04-2.62-.12-1.56 1.05-2.93 2.6-3.03.16-.02.3-.02.44 0z" stroke="#fff" stroke-opacity="0" fill="#fff"/><use xlink:href="#d" transform="matrix(1,0,0,1,511,1200.0000000000002) translate(0 14.222222222222223)"/><use xlink:href="#b" transform="matrix(1,0,0,1,511,1200.0000000000002) translate(53.23456790123458 14.222222222222223)"/><use xlink:href="#e" transform="matrix(1,0,0,1,511,1200.0000000000002) translate(114.46913580246915 14.222222222222223)"/><path d="M123.28 563.2h-19.76c-.9 0-1.63-.73-1.63-1.62v-2.42c0-9.03 5.93-16.6 14.75-18.73.4-.1.78-.05 1.16.16 2.6 1.38 5.4 1.38 8 0 .38-.22.76-.26 1.17-.17 2.3.57 4.22 1.4 6.18 2.7l-1.8 2.7c-1.48-.95-2.85-1.6-4.57-2.05-3.28 1.5-6.66 1.5-9.94 0-7.04 1.97-11.7 8.1-11.7 15.38v.8h18.14z" stroke="#fff" stroke-opacity="0" fill="#666"/><path d="M121.78 544.8c-5.87 0-10.64-4.76-10.64-10.62 0-5.86 4.77-10.62 10.64-10.62 5.88-.06 10.66 4.65 10.73 10.5.05 4.05-2 7.5-5.57 9.42-1.64.92-3.25 1.32-5.15 1.32zm0-18c-4.1 0-7.45 3.28-7.48 7.38 0 2.78 1.4 5.16 3.87 6.48 2.33 1.25 4.9 1.25 7.22 0 2.47-1.34 3.9-3.76 3.86-6.6-.04-4.04-3.4-7.3-7.48-7.25zM176.5 563.2h-19.76v-3.23h18.14v-.8c0-7.3-4.67-13.44-11.7-15.4-3.27 1.53-6.66 1.53-9.95 0-1.72.48-3.13 1.14-4.6 2.17l-1.85-2.67c1.97-1.37 3.88-2.24 6.2-2.83.4-.1.82-.05 1.2.16 2.56 1.4 5.4 1.4 8 0 .4-.2.76-.25 1.17-.16 8.8 2.12 14.76 9.7 14.76 18.73v2.42c0 .88-.72 1.58-1.6 1.6z" stroke="#fff" stroke-opacity="0" fill="#666"/><path d="M158.18 544.8c-5.92 0-10.7-4.8-10.7-10.72 0-5.9 4.82-10.68 10.74-10.68s10.7 4.8 10.7 10.72c0 4.02-2.03 7.45-5.57 9.37-1.67.9-3.28 1.3-5.17 1.3zm0-18c-4.1-.02-7.44 3.28-7.46 7.38-.03 2.8 1.4 5.16 3.86 6.47 2.3 1.26 4.9 1.26 7.22 0 2.5-1.33 3.95-3.77 3.9-6.62-.08-4.06-3.45-7.3-7.52-7.23zM165.9 599.6h-51.87c-.88 0-1.6-.7-1.6-1.6v-3.44c-.05-12.47 8.2-22.94 20.32-25.9.44-.12.83-.05 1.22.13 3.85 2.07 8.1 2.07 12 0 .33-.2.72-.25 1.16-.13 12.16 2.9 20.42 13.4 20.37 25.9V598c0 .9-.72 1.6-1.6 1.6zm-50.2-3.2h48.55v-1.84c0-10.73-6.94-19.75-17.34-22.54-4.56 2.2-9.36 2.2-13.93 0-10.4 2.8-17.28 11.8-17.28 22.54z" stroke="#fff" stroke-opacity="0" fill="#666"/><path d="M140.02 573.55c-2.57 0-4.76-.55-7.04-1.78-7.06-3.87-9.66-12.7-5.8-19.78 3.88-7.06 12.72-9.66 19.82-5.8 7.07 3.86 9.67 12.7 5.8 19.77-1.4 2.57-3.23 4.4-5.8 5.8-2.25 1.23-4.44 1.78-6.98 1.78zm0-25.5c-4.23-.05-7.88 2.07-9.93 5.8-2.93 5.4-.94 12.15 4.46 15.1 3.5 1.86 7.36 1.86 10.86 0 3.77-2.04 5.93-5.7 5.87-9.94-.1-6.1-5.15-11.03-11.28-10.95z" stroke="#fff" stroke-opacity="0" fill="#666"/><path d="M176.94 563.2H139.1c-.64 0-1.16-.52-1.16-1.17v-2.5c-.04-9.1 5.98-16.75 14.82-18.9.32-.1.6-.04.88.1 2.8 1.5 5.9 1.5 8.76 0 .24-.14.52-.2.84-.1 8.88 2.13 14.9 9.77 14.87 18.9v2.5c0 .65-.52 1.18-1.16 1.18zm-36.63-2.35h35.44v-1.33c0-7.83-5.06-14.4-12.66-16.45-3.33 1.6-6.83 1.6-10.16 0-7.6 2.04-12.6 8.62-12.6 16.45z" stroke="#fff" stroke-opacity="0" stroke-width=".73" fill="#fff" fill-opacity="0"/><path d="M140.9 563.2h-37.84c-.64 0-1.17-.52-1.17-1.17v-2.5c-.05-9.1 5.98-16.75 14.82-18.9.32-.1.6-.04.88.1 2.8 1.5 5.9 1.5 8.76 0 .24-.14.52-.2.84-.1 8.88 2.13 14.9 9.77 14.86 18.9v2.5c0 .65-.52 1.18-1.16 1.18zm-36.64-2.35h35.43v-1.33c0-7.83-5.07-14.4-12.66-16.45-3.33 1.6-6.83 1.6-10.16 0-7.6 2.04-12.62 8.62-12.62 16.45z" stroke="#fff" stroke-opacity="0" stroke-width=".73" fill="#fff" fill-opacity="0"/><use xlink:href="#f" transform="matrix(1,0,0,1,71.89407051786873,608.611248408151) translate(31.51234567901234 14.222222222222223)"/><use xlink:href="#g" transform="matrix(1,0,0,1,71.89407051786873,608.611248408151) translate(68.05555555555556 14.222222222222223)"/><path d="M320 441.5h1560v240H320z" fill="#fff" fill-opacity="0"/><path d="M331.94 441.5h7.96m7.96 0h7.96m7.96 0h7.96m7.95 0h7.95m7.96 0h7.97m7.96 0h7.96m7.95 0h7.96m7.97 0h7.96m7.96 0h7.94m7.96 0h7.96m7.96 0h7.96m7.96 0H515m7.96 0h7.96m7.96 0h7.96m7.96 0h7.96m7.95 0h7.97m7.96 0h7.96m7.95 0h7.96m7.97 0h7.96m7.96 0h7.95m7.96 0h7.97m7.95 0h7.96m7.96 0h7.96m7.96 0h7.96m7.96 0h7.96m7.96 0h7.96m7.96 0h7.96m7.96 0h7.95m7.95 0h7.96m7.97 0h7.96m7.96 0h7.95m7.96 0h7.97m7.96 0h7.96m7.95 0h7.95m7.96 0h7.96m7.96 0h7.96m7.96 0h7.96m7.96 0h7.96m7.96 0h7.96m7.96 0h7.95m7.97 0h7.96m7.96 0h7.95m7.96 0h7.97m7.96 0h7.96m7.95 0h7.96m7.97 0h7.95m7.96 0h7.96m7.96 0h7.96m7.96 0h7.96m7.96 0h7.96m7.96 0h7.96m7.96 0h7.95m7.96 0h7.95m7.96 0h7.97m7.96 0h7.96m7.95 0h7.96m7.97 0h7.96m7.96 0h7.94m7.96 0h7.96m7.96 0h7.96m7.96 0h7.96m7.96 0h7.96m7.96 0h7.96m7.96 0h7.96m7.95 0h7.97m7.96 0h7.96m7.95 0h7.96m7.97 0h7.96m7.96 0h7.95m7.96 0h7.97m7.95 0h7.96m7.96 0h7.96m7.96 0h7.96m7.96 0h7.96m7.96 0h7.96m7.96 0h7.96m7.95 0h7.96m7.95 0h7.96m7.97 0h7.96m7.96 0h7.95m7.96 0h7.97m7.96 0h7.96m7.94 0h7.96m7.96 0h7.96m7.96 0h7.96m7.96 0h7.96m7.96 0h7.96m7.96 0h7.96m7.96 0h7.95m7.97 0h7.96m7.96 0h7.95m7.96 0h7.97m7.96 0h7.96m7.95 0h7.96m7.97 0h7.95m7.96 0h7.96m7.96 0h7.96m7.96 0h3.98v4m0 8v8m0 8v8m0 8v8m0 8v8m0 8v8m0 8v8m0 8v8m0 8v8m0 8v8m0 8v8m0 8v8m0 8v8m0 8v8m0 8v8m0 8v4h-3.98m-7.96 0h-7.96m-7.96 0h-7.96m-7.96 0h-7.95m-7.96 0h-7.95m-7.96 0h-7.97m-7.96 0h-7.96m-7.95 0h-7.96m-7.97 0h-7.96m-7.96 0h-7.94m-7.96 0h-7.96m-7.96 0h-7.96m-7.96 0H1685m-7.96 0h-7.96m-7.96 0h-7.96m-7.96 0h-7.96m-7.95 0h-7.97m-7.96 0h-7.96m-7.95 0h-7.96m-7.97 0h-7.96m-7.96 0h-7.95m-7.96 0h-7.97m-7.95 0h-7.96m-7.96 0h-7.96m-7.96 0h-7.96m-7.96 0h-7.96m-7.96 0h-7.96m-7.96 0h-7.96m-7.95 0h-7.96m-7.95 0h-7.96m-7.97 0h-7.96m-7.96 0h-7.95m-7.96 0h-7.97m-7.96 0h-7.96m-7.94 0h-7.96m-7.96 0h-7.96m-7.96 0h-7.96m-7.96 0h-7.96m-7.96 0h-7.96m-7.96 0h-7.96m-7.96 0h-7.95m-7.97 0h-7.96m-7.96 0h-7.95m-7.96 0h-7.97m-7.96 0h-7.96m-7.95 0h-7.96m-7.97 0h-7.95m-7.96 0h-7.96m-7.96 0h-7.96m-7.96 0h-7.96m-7.96 0h-7.96m-7.96 0h-7.96m-7.96 0h-7.95m-7.96 0h-7.95m-7.96 0h-7.97m-7.96 0h-7.96m-7.95 0h-7.96m-7.97 0h-7.96m-7.96 0h-7.95m-7.95 0h-7.96m-7.96 0h-7.96m-7.96 0H905m-7.96 0h-7.96m-7.96 0h-7.96m-7.96 0h-7.96m-7.95 0h-7.97m-7.96 0h-7.96m-7.95 0h-7.96m-7.97 0h-7.96m-7.96 0h-7.95m-7.96 0h-7.97m-7.95 0h-7.96m-7.96 0h-7.96m-7.96 0h-7.96m-7.96 0h-7.96m-7.96 0h-7.96m-7.96 0h-7.96m-7.96 0h-7.95m-7.95 0h-7.96m-7.97 0h-7.96m-7.96 0h-7.95m-7.96 0h-7.97m-7.96 0h-7.96m-7.95 0h-7.95m-7.96 0h-7.96m-7.96 0h-7.96m-7.96 0h-7.96m-7.96 0h-7.96m-7.96 0h-7.96m-7.95 0h-7.96m-7.97 0h-7.96m-7.96 0h-7.95m-7.96 0h-7.97m-7.96 0h-7.96m-7.95 0h-7.96m-7.96 0h-7.96m-7.96 0h-7.96m-7.96 0h-7.96m-7.96 0H320v-4m0-8v-8m0-8v-8m0-8v-8m0-8v-8m0-8v-8m0-8v-8m0-8v-8m0-8v-8m0-8v-8m0-8v-8m0-8v-8m0-8v-8m0-8v-8m0-8v-8m0-8v-4h3.98" stroke="#147eba" stroke-width="2" fill="none"/><path d="M320.14 681.5v-240h47.4v240z" stroke="#000" stroke-opacity="0" stroke-width="2" fill="#fff" fill-opacity="0"/><use xlink:href="#h" transform="matrix(6.123233995736766e-17,-1,1,6.123233995736766e-17,325.1426689804967,676.5053189260198) translate(95.79012345679013 37.94638222222222)"/><use xlink:href="#i" transform="matrix(6.123233995736766e-17,-1,1,6.123233995736766e-17,325.1426689804967,676.5053189260198) translate(124.33333333333334 37.94638222222222)"/><path d="M320 800h1560v240H320z" fill="#fff" fill-opacity="0"/><path d="M331.94 800h7.96m7.96 0h7.96m7.96 0h7.96m7.95 0h7.95m7.96 0h7.97m7.96 0h7.96m7.95 0h7.96m7.97 0h7.96m7.96 0h7.94m7.96 0h7.96m7.96 0h7.96m7.96 0H515m7.96 0h7.96m7.96 0h7.96m7.96 0h7.96m7.95 0h7.97m7.96 0h7.96m7.95 0h7.96m7.97 0h7.96m7.96 0h7.95m7.96 0h7.97m7.95 0h7.96m7.96 0h7.96m7.96 0h7.96m7.96 0h7.96m7.96 0h7.96m7.96 0h7.96m7.96 0h7.95m7.95 0h7.96m7.97 0h7.96m7.96 0h7.95m7.96 0h7.97m7.96 0h7.96m7.95 0h7.95m7.96 0h7.96m7.96 0h7.96m7.96 0h7.96m7.96 0h7.96m7.96 0h7.96m7.96 0h7.95m7.97 0h7.96m7.96 0h7.95m7.96 0h7.97m7.96 0h7.96m7.95 0h7.96m7.97 0h7.95m7.96 0h7.96m7.96 0h7.96m7.96 0h7.96m7.96 0h7.96m7.96 0h7.96m7.96 0h7.95m7.96 0h7.95m7.96 0h7.97m7.96 0h7.96m7.95 0h7.96m7.97 0h7.96m7.96 0h7.94m7.96 0h7.96m7.96 0h7.96m7.96 0h7.96m7.96 0h7.96m7.96 0h7.96m7.96 0h7.96m7.95 0h7.97m7.96 0h7.96m7.95 0h7.96m7.97 0h7.96m7.96 0h7.95m7.96 0h7.97m7.95 0h7.96m7.96 0h7.96m7.96 0h7.96m7.96 0h7.96m7.96 0h7.96m7.96 0h7.96m7.95 0h7.96m7.95 0h7.96m7.97 0h7.96m7.96 0h7.95m7.96 0h7.97m7.96 0h7.96m7.94 0h7.96m7.96 0h7.96m7.96 0h7.96m7.96 0h7.96m7.96 0h7.96m7.96 0h7.96m7.96 0h7.95m7.97 0h7.96m7.96 0h7.95m7.96 0h7.97m7.96 0h7.96m7.95 0h7.96m7.97 0h7.95m7.96 0h7.96m7.96 0h7.96m7.96 0h3.98v4m0 8v8m0 8v8m0 8v8m0 8v8m0 8v8m0 8v8m0 8v8m0 8v8m0 8v8m0 8v8m0 8v8m0 8v8m0 8v8m0 8v8m0 8v4h-3.98m-7.96 0h-7.96m-7.96 0h-7.96m-7.96 0h-7.95m-7.96 0h-7.95m-7.96 0h-7.97m-7.96 0h-7.96m-7.95 0h-7.96m-7.97 0h-7.96m-7.96 0h-7.94m-7.96 0h-7.96m-7.96 0h-7.96m-7.96 0H1685m-7.96 0h-7.96m-7.96 0h-7.96m-7.96 0h-7.96m-7.95 0h-7.97m-7.96 0h-7.96m-7.95 0h-7.96m-7.97 0h-7.96m-7.96 0h-7.95m-7.96 0h-7.97m-7.95 0h-7.96m-7.96 0h-7.96m-7.96 0h-7.96m-7.96 0h-7.96m-7.96 0h-7.96m-7.96 0h-7.96m-7.95 0h-7.96m-7.95 0h-7.96m-7.97 0h-7.96m-7.96 0h-7.95m-7.96 0h-7.97m-7.96 0h-7.96m-7.94 0h-7.96m-7.96 0h-7.96m-7.96 0h-7.96m-7.96 0h-7.96m-7.96 0h-7.96m-7.96 0h-7.96m-7.96 0h-7.95m-7.97 0h-7.96m-7.96 0h-7.95m-7.96 0h-7.97m-7.96 0h-7.96m-7.95 0h-7.96m-7.97 0h-7.95m-7.96 0h-7.96m-7.96 0h-7.96m-7.96 0h-7.96m-7.96 0h-7.96m-7.96 0h-7.96m-7.96 0h-7.95m-7.96 0h-7.95m-7.96 0h-7.97m-7.96 0h-7.96m-7.95 0h-7.96m-7.97 0h-7.96m-7.96 0h-7.95m-7.95 0h-7.96m-7.96 0h-7.96m-7.96 0H905m-7.96 0h-7.96m-7.96 0h-7.96m-7.96 0h-7.96m-7.95 0h-7.97m-7.96 0h-7.96m-7.95 0h-7.96m-7.97 0h-7.96m-7.96 0h-7.95m-7.96 0h-7.97m-7.95 0h-7.96m-7.96 0h-7.96m-7.96 0h-7.96m-7.96 0h-7.96m-7.96 0h-7.96m-7.96 0h-7.96m-7.96 0h-7.95m-7.95 0h-7.96m-7.97 0h-7.96m-7.96 0h-7.95m-7.96 0h-7.97m-7.96 0h-7.96m-7.95 0h-7.95m-7.96 0h-7.96m-7.96 0h-7.96m-7.96 0h-7.96m-7.96 0h-7.96m-7.96 0h-7.96m-7.95 0h-7.96m-7.97 0h-7.96m-7.96 0h-7.95m-7.96 0h-7.97m-7.96 0h-7.96m-7.95 0h-7.96m-7.96 0h-7.96m-7.96 0h-7.96m-7.96 0h-7.96m-7.96 0H320v-4m0-8v-8m0-8v-8m0-8v-8m0-8v-8m0-8v-8m0-8v-8m0-8v-8m0-8v-8m0-8v-8m0-8v-8m0-8v-8m0-8v-8m0-8v-8m0-8v-8m0-8v-4h3.98" stroke="#147eba" stroke-width="2" fill="none"/><path d="M320.6 1040V800H368v240z" stroke="#000" stroke-opacity="0" stroke-width="2" fill="#fff" fill-opacity="0"/><use xlink:href="#h" transform="matrix(6.123233995736766e-17,-1,1,6.123233995736766e-17,325.58848559068747,1035.0000000000002) translate(95.32098765432099 37.94638222222222)"/><use xlink:href="#j" transform="matrix(6.123233995736766e-17,-1,1,6.123233995736766e-17,325.58848559068747,1035.0000000000002) translate(123.8641975308642 37.94638222222222)"/><path d="M441.25 460h360v200h-360z" fill="#248814" fill-opacity=".13"/><path d="M441.25 460h56v56h-56v-56z" stroke="#fff" stroke-opacity="0" fill="#248814"/><path d="M484.63 482.18c-.15-.17-.34-.25-.56-.25h-5.15v-5.58c-.03-2.54-.97-4.7-2.84-6.4-1.9-1.83-4.15-2.75-6.77-2.75-2.64 0-4.9.83-6.8 2.62-1.9 1.7-2.86 3.87-2.9 6.4v5.66h-5.14c-.25 0-.44.1-.6.25-.15.17-.2.34-.2.6V508c0 .43.33.8.8.8h29.58c.47 0 .8-.37.8-.8v-25.28c0-.2-.05-.38-.2-.54zm-23.46-5.9c.03-2.13.8-3.88 2.37-5.3 1.62-1.5 3.53-2.2 5.74-2.2 2.22 0 4.12.75 5.7 2.25 1.54 1.4 2.32 3.2 2.32 5.32v5.58h-16.16zm22.1 30.94h-28.03v-23.7h28.02z" stroke="#fff" stroke-opacity="0" fill="#fff"/><path d="M468.45 497.3v6.25h1.6v-6.23c2.13-.4 3.62-2.2 3.63-4.35 0-2.43-1.97-4.4-4.4-4.43-2.2-.03-4.06 1.5-4.44 3.68-.4 2.4 1.2 4.68 3.6 5.1zm.82-7.15c.78 0 1.44.27 2 .83.54.55.82 1.2.8 2 .03 1.54-1.2 2.8-2.74 2.8h-.06c-1.56.13-2.92-1.04-3.04-2.6-.12-1.56 1.05-2.93 2.6-3.03.16-.02.3-.02.44 0z" stroke="#fff" stroke-opacity="0" fill="#fff"/><use xlink:href="#d" transform="matrix(1,0,0,1,512.25,480) translate(0 14.222222222222223)"/><use xlink:href="#b" transform="matrix(1,0,0,1,512.25,480) translate(53.23456790123458 14.222222222222223)"/><use xlink:href="#k" transform="matrix(1,0,0,1,512.25,480) translate(114.46913580246915 14.222222222222223)"/><path d="M1100 460h360v200h-360z" fill="#147eba" fill-opacity=".13"/><path d="M1100 460h56v56h-56v-56z" stroke="#fff" stroke-opacity="0" fill="#147eba"/><path d="M1143.38 482.18c-.15-.17-.34-.25-.56-.25h-5.15v-5.58c-.03-2.54-.97-4.7-2.84-6.4-1.9-1.83-4.15-2.75-6.77-2.75-2.65 0-4.9.83-6.8 2.62-1.9 1.7-2.87 3.87-2.9 6.4v5.66h-5.15c-.24 0-.43.1-.58.25-.16.17-.22.34-.22.6V508c0 .43.34.8.8.8h29.6c.46 0 .8-.37.8-.8v-25.28c0-.2-.06-.38-.22-.54zm-23.46-5.9c.03-2.13.8-3.88 2.37-5.3 1.6-1.5 3.52-2.2 5.73-2.2 2.22 0 4.12.75 5.7 2.25 1.54 1.4 2.32 3.2 2.32 5.32v5.58h-16.16zm22.1 30.94h-28.03v-23.7h28z" stroke="#fff" stroke-opacity="0" fill="#fff"/><path d="M1127.2 497.3v6.25h1.6v-6.23c2.13-.4 3.62-2.2 3.63-4.35 0-2.43-1.97-4.4-4.4-4.43-2.2-.03-4.07 1.5-4.44 3.68-.42 2.4 1.2 4.68 3.6 5.1zm.82-7.15c.78 0 1.44.27 2 .83.54.55.82 1.2.8 2 .03 1.54-1.2 2.8-2.74 2.8h-.06c-1.56.13-2.92-1.04-3.04-2.6-.12-1.56 1.05-2.93 2.6-3.03.16-.02.3-.02.44 0z" stroke="#fff" stroke-opacity="0" fill="#fff"/><use xlink:href="#a" transform="matrix(1,0,0,1,1171,480) translate(0 14.222222222222223)"/><use xlink:href="#b" transform="matrix(1,0,0,1,1171,480) translate(60.14814814814815 14.222222222222223)"/><use xlink:href="#k" transform="matrix(1,0,0,1,1171,480) translate(121.38271604938274 14.222222222222223)"/><path d="M1100 1180h360v200h-360z" fill="#147eba" fill-opacity=".13"/><path d="M1100 1180h56v56h-56v-56z" stroke="#fff" stroke-opacity="0" fill="#147eba"/><path d="M1143.38 1202.18c-.15-.17-.34-.25-.56-.25h-5.15v-5.58c-.03-2.54-.97-4.7-2.84-6.4-1.9-1.84-4.15-2.75-6.77-2.75-2.65 0-4.9.83-6.8 2.62-1.9 1.7-2.87 3.87-2.9 6.4v5.66h-5.15c-.24 0-.43.1-.58.25-.16.17-.22.34-.22.6V1228c0 .43.34.8.8.8h29.6c.46 0 .8-.37.8-.8v-25.28c0-.2-.06-.38-.22-.54zm-23.46-5.9c.03-2.13.8-3.88 2.37-5.3 1.6-1.5 3.52-2.2 5.73-2.2 2.22 0 4.12.75 5.7 2.25 1.54 1.4 2.32 3.2 2.32 5.32v5.58h-16.16zm22.1 30.94h-28.03v-23.7h28z" stroke="#fff" stroke-opacity="0" fill="#fff"/><path d="M1127.2 1217.3v6.25h1.6v-6.23c2.13-.4 3.62-2.2 3.63-4.35 0-2.43-1.97-4.4-4.4-4.43-2.2-.03-4.07 1.5-4.44 3.68-.42 2.4 1.2 4.68 3.6 5.1zm.82-7.15c.78 0 1.44.27 2 .82.54.56.82 1.22.8 2 .03 1.55-1.2 2.8-2.74 2.82h-.06c-1.56.1-2.92-1.06-3.04-2.62-.12-1.56 1.05-2.93 2.6-3.03.16-.02.3-.02.44 0z" stroke="#fff" stroke-opacity="0" fill="#fff"/><use xlink:href="#a" transform="matrix(1,0,0,1,1171,1200) translate(0 14.222222222222223)"/><use xlink:href="#b" transform="matrix(1,0,0,1,1171,1200) translate(60.14814814814815 14.222222222222223)"/><use xlink:href="#e" transform="matrix(1,0,0,1,1171,1200) translate(121.38271604938274 14.222222222222223)"/><path d="M1500 820h360v200h-360z" fill="#147eba" fill-opacity=".13"/><path d="M1500 820h56v56h-56v-56z" stroke="#fff" stroke-opacity="0" fill="#147eba"/><path d="M1543.38 842.18c-.15-.17-.34-.25-.56-.25h-5.15v-5.58c-.03-2.54-.97-4.7-2.84-6.4-1.9-1.84-4.15-2.75-6.77-2.75-2.65 0-4.9.83-6.8 2.62-1.9 1.7-2.87 3.87-2.9 6.4v5.66h-5.15c-.24 0-.43.1-.58.25-.16.17-.22.34-.22.6V868c0 .43.34.8.8.8h29.6c.46 0 .8-.37.8-.8v-25.28c0-.2-.06-.38-.22-.54zm-23.46-5.9c.03-2.13.8-3.88 2.37-5.3 1.6-1.5 3.52-2.2 5.73-2.2 2.22 0 4.12.75 5.7 2.25 1.54 1.4 2.32 3.2 2.32 5.32v5.58h-16.16zm22.1 30.94h-28.03v-23.7h28z" stroke="#fff" stroke-opacity="0" fill="#fff"/><path d="M1527.2 857.3v6.25h1.6v-6.23c2.13-.4 3.62-2.2 3.63-4.35 0-2.43-1.97-4.4-4.4-4.43-2.2-.03-4.07 1.5-4.44 3.68-.42 2.4 1.2 4.68 3.6 5.1zm.82-7.15c.78 0 1.44.27 2 .83.54.55.82 1.2.8 2 .03 1.54-1.2 2.8-2.74 2.8h-.06c-1.56.13-2.92-1.04-3.04-2.6-.12-1.56 1.05-2.93 2.6-3.03.16-.02.3-.02.44 0z" stroke="#fff" stroke-opacity="0" fill="#fff"/><use xlink:href="#a" transform="matrix(1,0,0,1,1571,840.0000000000001) translate(0 14.222222222222223)"/><use xlink:href="#b" transform="matrix(1,0,0,1,1571,840.0000000000001) translate(60.14814814814815 14.222222222222223)"/><use xlink:href="#l" transform="matrix(1,0,0,1,1571,840.0000000000001) translate(121.38271604938274 14.222222222222223)"/><path d="M381.25 360H1920v1080H381.25z" stroke="#248814" stroke-width="2" fill-opacity="0"/><path d="M381.25 360h56v56h-56v-56z" stroke="#fff" stroke-opacity="0" fill="#248814"/><path d="M413 388.3h-1.17v-1.1c-.12-1.73-1.47-3.07-3.2-3.2-1.9-.13-3.54 1.3-3.67 3.2v1.07h-1.18c-.44 0-.8.36-.8.8v6.13c0 .44.35.8.8.8H413c.45 0 .8-.36.8-.8v-6.1c0-.44-.35-.8-.8-.8zm-6.4-1.06c.1-1.03 1-1.77 2-1.67.9.08 1.6.76 1.68 1.67v1.06h-3.72zm5.66 7.08h-7.68v-4.42h7.63z" stroke="#fff" stroke-opacity="0" fill="#fff"/><path d="M423.52 385.75c-.08-2.45-1.58-4.48-3.87-5.3-1.58-.47-3.16-.14-4.4.9-.68-1.45-1.47-2.6-2.6-3.76-3.24-3.36-7.94-4.3-12.18-2.4-4.04 1.9-6.4 5.63-6.54 10.05v.7c-3.4.98-5.66 4.08-5.5 7.65v.63c.38 4.28 3.92 7.52 8.2 7.47h26s7.42-.63 7.42-8.1c.04-3.9-2.66-7.2-6.53-7.86zm-.96 14.38h-25.92c-3.46.06-6.28-2.52-6.58-5.96v-.52c-.16-3.05 1.92-5.7 4.9-6.3.4-.12.64-.48.6-.9-.05-.4-.05-.73 0-1.14.08-3.78 2.12-6.94 5.53-8.6 1.24-.56 2.4-.8 3.82-.84 2.62.08 4.87 1.04 6.7 2.94 1.25 1.3 2.04 2.6 2.62 4.3.04.15.12.28.25.37.36.27.86.2 1.1-.17.84-1.18 2.26-1.67 3.63-1.3 1.8.72 2.87 2.4 2.83 4.32-.08.4.2.82.63.9 3.56.36 6.2 3.55 5.8 7.12-.28 3.13-2.7 5.52-5.8 5.85z" stroke="#fff" stroke-opacity="0" fill="#fff"/><use xlink:href="#m" transform="matrix(1,0,0,1,452.25,380) translate(0 14.222222222222223)"/><use xlink:href="#n" transform="matrix(1,0,0,1,452.25,380) translate(0 35.55555555555556)"/><path d="M241.25 240H1960v1260H241.25z" stroke="#232f3e" stroke-width="2" fill-opacity="0"/><path d="M241.25 240h56v56h-56v-56z" stroke="#fff" stroke-opacity="0" fill="#232f3e"/><path d="M259.47 265.87c-.04.48.04.87.17 1.34.12.4.3.7.5 1.07.03.1.07.22.07.34 0 .2-.1.36-.27.46l-.95.62c-.12.08-.25.13-.37.13-.15 0-.32-.06-.44-.2-.2-.22-.37-.43-.53-.7-.17-.25-.3-.53-.45-.86-1.1 1.37-2.63 2.1-4.4 2.06-1.15.06-2.13-.3-2.96-1.08-.78-.8-1.14-1.76-1.1-2.85-.04-1.23.4-2.28 1.35-3.08 1.07-.86 2.3-1.23 3.66-1.16.57 0 1.02.02 1.6.1.57.1 1.1.2 1.72.33v-1.1c.08-.88-.16-1.67-.7-2.37-.74-.56-1.56-.8-2.46-.7-.54 0-1.04.07-1.6.2-.6.13-1.04.3-1.6.5l-.5.2h-.25c-.2 0-.33-.16-.33-.45v-.75c0-.18.04-.33.12-.5.13-.16.25-.26.4-.33.67-.3 1.2-.5 1.9-.67.78-.2 1.48-.3 2.3-.28 1.48-.13 2.8.26 3.9 1.2.95 1.05 1.36 2.28 1.23 3.67zm-6.07 2.28c.57 0 1.06-.1 1.6-.28.57-.2 1.02-.5 1.44-.96.24-.27.4-.56.5-.93.1-.45.15-.84.15-1.3V264c-.54-.1-.95-.17-1.45-.2h-1.4c-.8-.08-1.55.12-2.2.58-.54.45-.8 1.04-.75 1.73-.04.6.13 1.16.54 1.6.45.38.98.52 1.56.45zm12 1.6c-.22 0-.42-.03-.6-.15-.15-.17-.23-.36-.32-.6l-3.5-11.5-.1-.62c0-.24.1-.37.36-.37h1.48c.2 0 .37.04.57.15.16.18.24.37.28.6l2.5 9.96 2.4-9.93c0-.24.07-.44.27-.6.17-.12.37-.16.58-.15h1.2c.24 0 .4.03.6.15.17.18.25.36.3.6l2.33 9.94 2.55-10c.05-.2.17-.4.34-.58.16-.1.37-.17.57-.14h1.4c.17 0 .34.12.38.3v.31s0 .2-.12.35l-3.62 11.53c-.04.22-.12.42-.3.6-.2.1-.36.14-.56.13h-1.27c-.24.04-.45-.02-.6-.15-.17-.17-.25-.36-.3-.6l-2.3-9.6-2.3 9.6c-.04.24-.12.44-.28.6-.2.13-.4.2-.62.16zm19.2.38c-.82 0-1.52-.07-2.3-.25-.65-.13-1.15-.3-1.72-.6-.2-.1-.37-.23-.45-.4-.08-.16-.12-.3-.12-.45v-.75c0-.3.13-.46.33-.46h.3l.36.15c.57.24 1.02.4 1.6.5.6.15 1.14.2 1.8.2.78.06 1.48-.1 2.18-.48.5-.32.78-.83.74-1.42.04-.4-.13-.76-.38-1.04-.45-.4-.94-.65-1.5-.8l-2.2-.67c-.94-.26-1.72-.74-2.37-1.5-.5-.66-.74-1.36-.74-2.2 0-.58.12-1.07.4-1.6.3-.5.63-.88 1.08-1.2.5-.4 1-.62 1.6-.8.67-.17 1.2-.25 1.9-.24.33-.03.6-.03.98 0l1 .16.8.22.67.26c.16.1.28.22.45.38.08.15.12.3.12.5v.7c0 .3-.12.47-.37.47-.2-.03-.37-.08-.57-.18-.95-.42-1.8-.6-2.88-.58-.7-.04-1.3.08-1.97.4-.5.3-.74.8-.7 1.36 0 .4.13.76.45 1.05.5.4 1 .65 1.6.82l2.1.67c.95.24 1.7.7 2.3 1.44.5.64.7 1.3.7 2.1 0 .63-.13 1.17-.37 1.73-.28.55-.6.95-1.1 1.32-.5.4-1 .66-1.6.84-.74.23-1.4.33-2.14.34zM287.36 277.5c-5.6 3.8-11.37 5.56-18.16 5.54-8.54.05-15.82-2.74-22.16-8.45-.5-.42 0-1 .5-.68 7.06 4.05 14.02 5.9 22.2 5.9 6.08-.04 11.28-1.1 16.92-3.47.82-.35 1.5.54.7 1.13z" stroke="#fff" stroke-opacity="0" fill="#fff"/><path d="M289.4 275.2c-.63-.8-4.15-.38-5.74-.2-.47 0-.54-.36-.1-.67 2.8-1.97 7.4-1.4 8-.73.58.67-.15 5.28-2.8 7.48-.4.35-.77.15-.6-.28.55-1.52 1.87-4.83 1.25-5.6z" stroke="#fff" stroke-opacity="0" fill="#fff"/><use xlink:href="#o" transform="matrix(1,0,0,1,312.25,259.99999999999994) translate(0 14.222222222222223)"/><path d="M453.15 77a8 8 0 0 1 8-8h836.75a8 8 0 0 1 8 8v25.16a8 8 0 0 1-8 8H461.15a8 8 0 0 1-8-8z" stroke="#000" stroke-opacity="0" stroke-width="2" fill="#fff" fill-opacity="0"/><use xlink:href="#p" transform="matrix(1,0,0,1,457.14655278534315,73) translate(314.3655555555556 25.782777777777778)"/><use xlink:href="#q" transform="matrix(1,0,0,1,457.14655278534315,73) translate(395.2902469135803 25.782777777777778)"/><use xlink:href="#r" transform="matrix(1,0,0,1,457.14655278534315,73) translate(411.24209876543216 25.782777777777778)"/><use xlink:href="#s" transform="matrix(1,0,0,1,457.14655278534315,73) translate(479.5655555555556 25.782777777777778)"/><path d="M671.04 106.06l430.25 2.75M671.07 106.06h-1.03M1101.26 108.8h1.03" stroke="#a9afb8" stroke-width="2" fill="none"/><path d="M453.15 118.16a8 8 0 0 1 8-8h837.7a8 8 0 0 1 8 8V121a8 8 0 0 1-8 8h-837.7a8 8 0 0 1-8-8z" stroke="#000" stroke-opacity="0" stroke-width="2" fill="#fff" fill-opacity="0"/><use xlink:href="#t" transform="matrix(1,0,0,1,457.1465527853436,114.15522395689881) translate(293.72085390946506 14.917037037037037)"/><use xlink:href="#u" transform="matrix(1,0,0,1,457.1465527853436,114.15522395689881) translate(347.0029526748972 14.917037037037037)"/><use xlink:href="#v" transform="matrix(1,0,0,1,457.1465527853436,114.15522395689881) translate(399.6477057613169 14.917037037037037)"/><use xlink:href="#w" transform="matrix(1,0,0,1,457.1465527853436,114.15522395689881) translate(452.2499691358025 14.917037037037037)"/><use xlink:href="#x" transform="matrix(1,0,0,1,457.1465527853436,114.15522395689881) translate(464.6994547325103 14.917037037037037)"/><use xlink:href="#y" transform="matrix(1,0,0,1,457.1465527853436,114.15522395689881) translate(499.41354938271604 14.917037037037037)"/><use xlink:href="#z" transform="matrix(1,0,0,1,457.1465527853436,114.15522395689881) translate(524.9073765432099 14.917037037037037)"/><path d="M320 1158.5h1560V1400H320z" fill="#fff" fill-opacity="0"/><path d="M331.94 1158.5h7.96m7.96 0h7.96m7.96 0h7.96m7.95 0h7.95m7.96 0h7.97m7.96 0h7.96m7.95 0h7.96m7.97 0h7.96m7.96 0h7.94m7.96 0h7.96m7.96 0h7.96m7.96 0H515m7.96 0h7.96m7.96 0h7.96m7.96 0h7.96m7.95 0h7.97m7.96 0h7.96m7.95 0h7.96m7.97 0h7.96m7.96 0h7.95m7.96 0h7.97m7.95 0h7.96m7.96 0h7.96m7.96 0h7.96m7.96 0h7.96m7.96 0h7.96m7.96 0h7.96m7.96 0h7.95m7.95 0h7.96m7.97 0h7.96m7.96 0h7.95m7.96 0h7.97m7.96 0h7.96m7.95 0h7.95m7.96 0h7.96m7.96 0h7.96m7.96 0h7.96m7.96 0h7.96m7.96 0h7.96m7.96 0h7.95m7.97 0h7.96m7.96 0h7.95m7.96 0h7.97m7.96 0h7.96m7.95 0h7.96m7.97 0h7.95m7.96 0h7.96m7.96 0h7.96m7.96 0h7.96m7.96 0h7.96m7.96 0h7.96m7.96 0h7.95m7.96 0h7.95m7.96 0h7.97m7.96 0h7.96m7.95 0h7.96m7.97 0h7.96m7.96 0h7.94m7.96 0h7.96m7.96 0h7.96m7.96 0h7.96m7.96 0h7.96m7.96 0h7.96m7.96 0h7.96m7.95 0h7.97m7.96 0h7.96m7.95 0h7.96m7.97 0h7.96m7.96 0h7.95m7.96 0h7.97m7.95 0h7.96m7.96 0h7.96m7.96 0h7.96m7.96 0h7.96m7.96 0h7.96m7.96 0h7.96m7.95 0h7.96m7.95 0h7.96m7.97 0h7.96m7.96 0h7.95m7.96 0h7.97m7.96 0h7.96m7.94 0h7.96m7.96 0h7.96m7.96 0h7.96m7.96 0h7.96m7.96 0h7.96m7.96 0h7.96m7.96 0h7.95m7.97 0h7.96m7.96 0h7.95m7.96 0h7.97m7.96 0h7.96m7.95 0h7.96m7.97 0h7.95m7.96 0h7.96m7.96 0h7.96m7.96 0h3.98v4.02m0 8.05v8.05m0 8.05v8.05m0 8.05v8.05m0 8.05v8.05m0 8.05v8.05m0 8.05v8.05m0 8.05v8.05m0 8.05v8.05m0 8.05v8.05m0 8.05v8.05m0 8.05v8.05m0 8.05v8.05m0 8.05v8.05m0 8.06v8.04m0 8.05v4.03h-3.98m-7.96 0h-7.96m-7.96 0h-7.96m-7.96 0h-7.95m-7.96 0h-7.95m-7.96 0h-7.97m-7.96 0h-7.96m-7.95 0h-7.96m-7.97 0h-7.96m-7.96 0h-7.94m-7.96 0h-7.96m-7.96 0h-7.96m-7.96 0H1685m-7.96 0h-7.96m-7.96 0h-7.96m-7.96 0h-7.96m-7.95 0h-7.97m-7.96 0h-7.96m-7.95 0h-7.96m-7.97 0h-7.96m-7.96 0h-7.95m-7.96 0h-7.97m-7.95 0h-7.96m-7.96 0h-7.96m-7.96 0h-7.96m-7.96 0h-7.96m-7.96 0h-7.96m-7.96 0h-7.96m-7.95 0h-7.96m-7.95 0h-7.96m-7.97 0h-7.96m-7.96 0h-7.95m-7.96 0h-7.97m-7.96 0h-7.96m-7.94 0h-7.96m-7.96 0h-7.96m-7.96 0h-7.96m-7.96 0h-7.96m-7.96 0h-7.96m-7.96 0h-7.96m-7.96 0h-7.95m-7.97 0h-7.96m-7.96 0h-7.95m-7.96 0h-7.97m-7.96 0h-7.96m-7.95 0h-7.96m-7.97 0h-7.95m-7.96 0h-7.96m-7.96 0h-7.96m-7.96 0h-7.96m-7.96 0h-7.96m-7.96 0h-7.96m-7.96 0h-7.95m-7.96 0h-7.95m-7.96 0h-7.97m-7.96 0h-7.96m-7.95 0h-7.96m-7.97 0h-7.96m-7.96 0h-7.95m-7.95 0h-7.96m-7.96 0h-7.96m-7.96 0H905m-7.96 0h-7.96m-7.96 0h-7.96m-7.96 0h-7.96m-7.95 0h-7.97m-7.96 0h-7.96m-7.95 0h-7.96m-7.97 0h-7.96m-7.96 0h-7.95m-7.96 0h-7.97m-7.95 0h-7.96m-7.96 0h-7.96m-7.96 0h-7.96m-7.96 0h-7.96m-7.96 0h-7.96m-7.96 0h-7.96m-7.96 0h-7.95m-7.95 0h-7.96m-7.97 0h-7.96m-7.96 0h-7.95m-7.96 0h-7.97m-7.96 0h-7.96m-7.95 0h-7.95m-7.96 0h-7.96m-7.96 0h-7.96m-7.96 0h-7.96m-7.96 0h-7.96m-7.96 0h-7.96m-7.95 0h-7.96m-7.97 0h-7.96m-7.96 0h-7.95m-7.96 0h-7.97m-7.96 0h-7.96m-7.95 0h-7.96m-7.96 0h-7.96m-7.96 0h-7.96m-7.96 0h-7.96m-7.96 0H320v-4.03m0-8.05v-8.05m0-8.05v-8.05m0-8.05v-8.05m0-8.05v-8.05m0-8.05v-8.05m0-8.05v-8.05m0-8.05v-8.05m0-8.05v-8.05m0-8.05v-8.05m0-8.05v-8.05m0-8.05v-8.05m0-8.05v-8.05m0-8.05v-8.05m0-8.05v-8.05m0-8.05v-4.03h3.98" stroke="#147eba" stroke-width="2" fill="none"/><path d="M320.6 1400v-241.5H368V1400z" stroke="#000" stroke-opacity="0" stroke-width="2" fill="#fff" fill-opacity="0"/><use xlink:href="#h" transform="matrix(6.123233995736766e-17,-1,1,6.123233995736766e-17,325.58848559068747,1395.0000000000002) translate(96.79012345679013 37.94638222222222)"/><use xlink:href="#A" transform="matrix(6.123233995736766e-17,-1,1,6.123233995736766e-17,325.58848559068747,1395.0000000000002) translate(125.33333333333334 37.94638222222222)"/><path d="M561.25 502.75h120v120h-120v-120z" stroke="#fff" stroke-opacity="0" stroke-width="2" fill="#d86613"/><path d="M658.05 567.55h-8.02v-3.18h8.02v-38.44h-38.43v8.02h-3.2v-8.02c0-1.75 1.45-3.18 3.2-3.18h38.43c1.75 0 3.18 1.43 3.18 3.18v38.44c0 1.75-1.43 3.18-3.18 3.18zM622.85 602.75H584.4c-1.73 0-3.17-1.43-3.17-3.18v-38.44c0-1.75 1.44-3.18 3.18-3.18h8.03v3.18h-8v38.44h38.42v-8.02h3.18v8.02c0 1.75-1.43 3.18-3.18 3.18z" stroke="#fff" stroke-opacity="0" stroke-width="2" fill="#fff"/><path d="M646.85 548.36v-3.22h-4.8c-.12-1.7-1.5-3.07-3.2-3.18v-4.8h-3.2v4.8h-4.77v-4.8h-3.23v4.8h-4.8v-4.8h-3.2v4.8h-4.8v-4.8h-3.17v4.8h-4.82v-4.8h-3.22v4.8c-1.7.1-3.07 1.5-3.18 3.18h-4.8v3.22h4.8v4.82h-4.8v3.17h4.8v4.8h-4.8v3.2h4.8v4.8h-4.8v3.23h4.8v4.76h-4.8v3.22h4.8c.1 1.7 1.5 3.07 3.18 3.18v4.8h3.22v-4.8h4.82v4.8h3.17v-4.8h4.8v4.8h3.2v-4.8h4.8v4.8h3.23v-4.8h4.76v4.8h3.22v-4.8c1.7-.1 3.07-1.5 3.18-3.18h4.8v-3.22h-4.8v-4.76h4.8v-3.23h-4.8v-4.8h4.8v-3.2h-4.8v-4.8h4.8v-3.17h-4.8v-4.82zm-8 31.7c0 .15-.14.3-.3.3h-34.6c-.16 0-.3-.15-.3-.3v-34.62c0-.15.14-.3.3-.3h34.6c.16 0 .3.15.3.3z" stroke="#fff" stroke-opacity="0" stroke-width="2" fill="#fff"/><use xlink:href="#B" transform="matrix(1,0,0,1,531.25,631.75) translate(48.05 14.4)"/><use xlink:href="#C" transform="matrix(1,0,0,1,531.25,631.75) translate(99.95 14.4)"/><path d="M560 860.75h120v120H560v-120z" stroke="#fff" stroke-opacity="0" stroke-width="2" fill="#d86613"/><path d="M656.8 925.55h-8.02v-3.18h8.02v-38.44h-38.43v8.02h-3.2v-8.02c0-1.74 1.45-3.18 3.2-3.18h38.43c1.75 0 3.18 1.44 3.18 3.18v38.44c0 1.75-1.43 3.18-3.18 3.18zM621.6 960.75h-38.44c-1.74 0-3.18-1.43-3.18-3.18v-38.44c0-1.74 1.44-3.18 3.18-3.18h8.02v3.18h-8v38.44h38.42v-8.02h3.18v8.02c0 1.75-1.43 3.18-3.18 3.18z" stroke="#fff" stroke-opacity="0" stroke-width="2" fill="#fff"/><path d="M645.6 906.37v-3.23h-4.8c-.12-1.7-1.5-3.07-3.2-3.17v-4.82h-3.2v4.82h-4.77v-4.82h-3.23v4.82h-4.8v-4.82h-3.2v4.82h-4.8v-4.82h-3.17v4.82h-4.82v-4.82h-3.2v4.82c-1.7.1-3.08 1.48-3.2 3.17h-4.8v3.23h4.8v4.8h-4.8v3.18h4.8v4.8h-4.8v3.2h4.8v4.8h-4.8v3.23h4.8v4.76h-4.8v3.23h4.8c.12 1.68 1.5 3.07 3.2 3.17v4.8h3.2v-4.8h4.83v4.8h3.17v-4.8h4.8v4.8h3.2v-4.8h4.8v4.8h3.23v-4.8h4.76v4.8h3.2v-4.8c1.7-.1 3.08-1.5 3.2-3.17h4.8v-3.23h-4.8v-4.76h4.8v-3.23h-4.8v-4.8h4.8v-3.2h-4.8v-4.8h4.8v-3.17h-4.8v-4.8zm-8 31.7c0 .14-.14.3-.3.3h-34.6c-.16 0-.3-.16-.3-.3v-34.62c0-.16.14-.3.3-.3h34.6c.16 0 .3.14.3.3z" stroke="#fff" stroke-opacity="0" stroke-width="2" fill="#fff"/><use xlink:href="#D" transform="matrix(1,0,0,1,530,989.7526594630099) translate(42.949999999999996 14.4)"/><use xlink:href="#E" transform="matrix(1,0,0,1,530,989.7526594630099) translate(82.15 14.4)"/><path d="M200 924.05c0 6.92-2.04 12.4-6.12 16.5-6.72 6.68-16.32 6.83-17.16 6.83h-12.96v-5.54l12.96.07c.12 0 8.16-.06 13.32-5.3 3-2.97 4.56-7.23 4.56-12.55 0-3.2-.96-8.13-8.64-12.84-3.96-2.5-7.68-3.26-9.12-3.57-1.44-.22-2.52-1.5-2.28-3.03-.48-5.7-3.12-9.8-7.44-11.1-3.6-1.07-7.44.23-9.84 3.34-.6.76-1.56 1.22-2.64 1.07-.96-.14-1.8-.83-2.16-1.82-1.68-4.56-4.08-8.43-7.2-11.4-3.84-3.72-14.4-11.7-29.28-5.62-8.52 3.5-15.24 13.53-15.24 22.8 0 1.06 0 2.05.12 3.12.24 1.3-.6 2.58-1.8 2.96-.12 0-.24.07-.36.07-5.04 1.3-13.32 5.1-13.32 16.5 0 8.67 4.92 13.46 9.12 15.97 1.32.83 3 1.3 4.68 1.3l16.68.07v5.47H99.2c-2.64 0-5.28-.75-7.56-2.12C87.32 942.6 80 936.36 80 924.5c0-10.18 5.64-18 15.36-21.2 0-.45-.12-.98-.12-1.44 0-11.55 8.04-23.56 18.72-27.9 12.36-5.1 25.56-2.58 35.16 6.7 2.76 2.73 5.04 6 6.96 9.8 3.6-2.74 8.28-3.57 12.72-2.2 5.88 1.82 9.96 7.14 11.04 14.44 3 .75 6.24 2.12 9 3.8 7.56 4.63 11.16 10.4 11.16 17.55zm-64.56-3.88l-9.72-9.88v37h-5.52v-36.7l-9.36 9.65-3.84-3.88 14.16-14.5c.48-.54 1.2-.85 1.92-.85s1.44.3 1.92.84l14.28 14.44zm33.36 5.7l3.84 3.96-14.28 14.44c-.48.53-1.2.83-1.92.83s-1.44-.3-1.92-.83l-14.16-14.52 3.84-3.88 9.36 9.58v-31.7h5.52v32zm-38.88 21.44v-5.46h19.32v5.54z" stroke="#000" stroke-opacity="0" fill="#232f3d"/><path d="M115.9 947.32l33.27.07h27.7l13-7.24 7.53-10.92-.7-14.32-18.23-9.74-5.93-12.03-8.77-2-9.24 2.44-15.16-17.42-18-2.58-16.66 9.22-7.4 16.38-1.7 6.87-11.63 10.4L83.4 933l9.8 10.7z" stroke="#000" stroke-opacity="0" fill-opacity="0"/><use xlink:href="#F" transform="matrix(1,0,0,1,50,956.3829503980432) translate(59.525 14.4)"/><path d="M559.5 920.75H216" stroke="#333" fill="none"/><path d="M560 921.23h-.5v-.95h.5z" stroke="#333" stroke-width=".05" fill="#333"/><path d="M201.24 920.75l14.27-4.63v9.27z" stroke="#333" fill="#333"/><g filter="url(#G)"><path d="M1616.53 863.03h124.44v124.45h-124.44z" stroke="#fff" stroke-opacity="0" fill="#3b48cc"/><path d="M1738.73 865.27v119.97h-119.96V865.27h119.96m4.52-4.52h-129v129h129v-129z" stroke="#fff" stroke-opacity="0" fill="#fff"/><path d="M1679.5 886.55c-15.2 0-26.75 4.9-26.75 11.37v56.1c0 6.56 11.56 11.45 26.75 11.45 15.2 0 26.75-4.9 26.75-11.36V898c0-6.55-11.5-11.45-26.75-11.45zm0 3c13.96 0 23.7 4.42 23.7 8.37 0 3.94-9.74 8.36-23.7 8.36-13.96 0-23.7-4.34-23.7-8.28 0-3.95 9.74-8.45 23.7-8.45zm0 72.92c-13.96 0-23.7-4.42-23.7-8.36v-11.83c4.4 3.63 13.1 6 23.7 6 10.65 0 19.3-2.37 23.7-6v11.84c0 3.95-9.74 8.37-23.7 8.37zm0-17.28c-13.96 0-23.7-4.35-23.7-8.3V923c4.4 3.56 13.1 5.93 23.7 5.93 10.65 0 19.3-2.37 23.7-5.92v13.9c0 3.95-9.74 8.3-23.7 8.3zm0-19.35c-13.96 0-23.7-4.34-23.7-8.28v-14.3c4.4 3.64 13.1 6 23.7 6 10.65 0 19.3-2.36 23.7-6v14.22c0 3.93-9.74 8.35-23.7 8.35z" stroke="#fff" stroke-opacity="0" fill="#fff"/><use xlink:href="#H" transform="matrix(1,0,0,1,1584.25,998.7526594630099) translate(49.87499999999999 14.4)"/><use xlink:href="#I" transform="matrix(1,0,0,1,1584.25,998.7526594630099) translate(114.17500000000001 14.4)"/></g><path d="M1221.25 860.75h120v120h-120v-120z" stroke="#fff" stroke-opacity="0" stroke-width="2" fill="#d86613"/><path d="M1318.05 925.55h-8.02v-3.18h8.02v-38.44h-38.43v8.02h-3.2v-8.02c0-1.74 1.45-3.18 3.2-3.18h38.43c1.75 0 3.18 1.44 3.18 3.18v38.44c0 1.75-1.43 3.18-3.18 3.18zM1282.85 960.75h-38.43c-1.75 0-3.2-1.43-3.2-3.18v-38.44c0-1.74 1.45-3.18 3.2-3.18h8v3.18h-8v38.44h38.43v-8.02h3.18v8.02c0 1.75-1.43 3.18-3.18 3.18z" stroke="#fff" stroke-opacity="0" stroke-width="2" fill="#fff"/><path d="M1306.85 906.37v-3.23h-4.8c-.12-1.7-1.5-3.07-3.2-3.17v-4.82h-3.2v4.82h-4.77v-4.82h-3.23v4.82h-4.8v-4.82h-3.2v4.82h-4.8v-4.82h-3.17v4.82h-4.82v-4.82h-3.22v4.82c-1.7.1-3.08 1.48-3.18 3.17h-4.8v3.23h4.8v4.8h-4.8v3.18h4.8v4.8h-4.8v3.2h4.8v4.8h-4.8v3.23h4.8v4.76h-4.8v3.23h4.8c.1 1.68 1.5 3.07 3.18 3.17v4.8h3.22v-4.8h4.82v4.8h3.17v-4.8h4.8v4.8h3.2v-4.8h4.8v4.8h3.23v-4.8h4.76v4.8h3.22v-4.8c1.7-.1 3.08-1.5 3.18-3.17h4.8v-3.23h-4.8v-4.76h4.8v-3.23h-4.8v-4.8h4.8v-3.2h-4.8v-4.8h4.8v-3.17h-4.8v-4.8zm-8 31.7c0 .14-.14.3-.3.3h-34.6c-.16 0-.3-.16-.3-.3v-34.62c0-.16.14-.3.3-.3h34.6c.16 0 .3.14.3.3z" stroke="#fff" stroke-opacity="0" stroke-width="2" fill="#fff"/><use xlink:href="#J" transform="matrix(1,0,0,1,1191.25,989.7526594630099) translate(51.5 14.4)"/><use xlink:href="#C" transform="matrix(1,0,0,1,1191.25,989.7526594630099) translate(96.5 14.4)"/><path d="M561.25 1220h120v120h-120v-120z" stroke="#fff" stroke-opacity="0" stroke-width="2" fill="#d86613"/><path d="M658.05 1284.8h-8.02v-3.18h8.02v-38.44h-38.43v8.02h-3.2v-8.02c0-1.75 1.45-3.18 3.2-3.18h38.43c1.75 0 3.18 1.43 3.18 3.18v38.44c0 1.75-1.43 3.18-3.18 3.18zM622.85 1320H584.4c-1.73 0-3.17-1.43-3.17-3.18v-38.44c0-1.75 1.44-3.18 3.18-3.18h8.03v3.18h-8v38.44h38.42v-8.02h3.18v8.02c0 1.75-1.43 3.18-3.18 3.18z" stroke="#fff" stroke-opacity="0" stroke-width="2" fill="#fff"/><path d="M646.85 1265.6v-3.2h-4.8c-.12-1.7-1.5-3.1-3.2-3.2v-4.8h-3.2v4.8h-4.77v-4.8h-3.23v4.8h-4.8v-4.8h-3.2v4.8h-4.8v-4.8h-3.17v4.8h-4.82v-4.8h-3.22v4.8c-1.7.12-3.07 1.5-3.18 3.2h-4.8v3.2h4.8v4.83h-4.8v3.17h4.8v4.8h-4.8v3.2h4.8v4.8h-4.8v3.23h4.8v4.76h-4.8v3.2h4.8c.1 1.7 1.5 3.1 3.18 3.2v4.8h3.22v-4.8h4.82v4.8h3.17v-4.8h4.8v4.8h3.2v-4.8h4.8v4.8h3.23v-4.8h4.76v4.8h3.22v-4.8c1.7-.12 3.07-1.5 3.18-3.2h4.8v-3.2h-4.8v-4.77h4.8v-3.23h-4.8v-4.8h4.8v-3.2h-4.8v-4.8h4.8v-3.17h-4.8v-4.82zm-8 31.7c0 .16-.14.3-.3.3h-34.6c-.16 0-.3-.14-.3-.3v-34.6c0-.16.14-.3.3-.3h34.6c.16 0 .3.14.3.3z" stroke="#fff" stroke-opacity="0" stroke-width="2" fill="#fff"/><use xlink:href="#K" transform="matrix(1,0,0,1,531.25,1349) translate(39.05 14.4)"/><use xlink:href="#L" transform="matrix(1,0,0,1,531.25,1349) translate(104 14.4)"/><path d="M1218.75 502.75h120v120h-120v-120z" stroke="#fff" stroke-opacity="0" stroke-width="2" fill="#d86613"/><path d="M1315.55 567.55h-8.02v-3.18h8.02v-38.44h-38.43v8.02h-3.2v-8.02c0-1.75 1.45-3.18 3.2-3.18h38.43c1.75 0 3.18 1.43 3.18 3.18v38.44c0 1.75-1.43 3.18-3.18 3.18zM1280.35 602.75h-38.43c-1.75 0-3.2-1.43-3.2-3.18v-38.44c0-1.75 1.45-3.18 3.2-3.18h8v3.18h-8v38.44h38.43v-8.02h3.18v8.02c0 1.75-1.43 3.18-3.18 3.18z" stroke="#fff" stroke-opacity="0" stroke-width="2" fill="#fff"/><path d="M1304.35 548.36v-3.22h-4.8c-.12-1.7-1.5-3.07-3.2-3.18v-4.8h-3.2v4.8h-4.77v-4.8h-3.23v4.8h-4.8v-4.8h-3.2v4.8h-4.8v-4.8h-3.17v4.8h-4.82v-4.8h-3.22v4.8c-1.7.1-3.08 1.5-3.18 3.18h-4.8v3.22h4.8v4.82h-4.8v3.17h4.8v4.8h-4.8v3.2h4.8v4.8h-4.8v3.23h4.8v4.76h-4.8v3.22h4.8c.1 1.7 1.5 3.07 3.18 3.18v4.8h3.22v-4.8h4.82v4.8h3.17v-4.8h4.8v4.8h3.2v-4.8h4.8v4.8h3.23v-4.8h4.76v4.8h3.22v-4.8c1.7-.1 3.08-1.5 3.18-3.18h4.8v-3.22h-4.8v-4.76h4.8v-3.23h-4.8v-4.8h4.8v-3.2h-4.8v-4.8h4.8v-3.17h-4.8v-4.82zm-8 31.7c0 .15-.14.3-.3.3h-34.6c-.16 0-.3-.15-.3-.3v-34.62c0-.15.14-.3.3-.3h34.6c.16 0 .3.15.3.3z" stroke="#fff" stroke-opacity="0" stroke-width="2" fill="#fff"/><use xlink:href="#J" transform="matrix(1,0,0,1,1188.75,631.75) translate(51.5 14.4)"/><use xlink:href="#C" transform="matrix(1,0,0,1,1188.75,631.75) translate(96.5 14.4)"/><path d="M123.28 1281.7h-19.76c-.9 0-1.63-.73-1.63-1.62v-2.42c0-9.04 5.93-16.62 14.75-18.74.4-.1.78-.04 1.16.16 2.6 1.4 5.4 1.4 8 0 .38-.2.76-.25 1.17-.16 2.3.57 4.22 1.4 6.18 2.72l-1.8 2.7c-1.48-.97-2.85-1.6-4.57-2.06-3.28 1.5-6.66 1.5-9.94 0-7.04 1.96-11.7 8.1-11.7 15.38v.8h18.14z" stroke="#fff" stroke-opacity="0" fill="#666"/><path d="M121.78 1263.3c-5.87 0-10.64-4.76-10.64-10.63 0-5.86 4.77-10.62 10.64-10.62 5.88-.06 10.66 4.66 10.73 10.5.05 4.05-2 7.52-5.57 9.43-1.64.9-3.25 1.3-5.15 1.3zm0-18.02c-4.1 0-7.45 3.3-7.48 7.4 0 2.78 1.4 5.16 3.87 6.47 2.33 1.26 4.9 1.26 7.22 0 2.47-1.34 3.9-3.76 3.86-6.58-.04-4.06-3.4-7.3-7.48-7.26zM176.5 1281.7h-19.76v-3.24h18.14v-.8c0-7.3-4.67-13.43-11.7-15.4-3.27 1.53-6.66 1.53-9.95 0-1.72.48-3.13 1.15-4.6 2.17l-1.85-2.67c1.97-1.37 3.88-2.23 6.2-2.83.4-.1.82-.04 1.2.16 2.56 1.4 5.4 1.4 8 0 .4-.2.76-.26 1.17-.16 8.8 2.12 14.76 9.7 14.76 18.72v2.42c0 .9-.72 1.6-1.6 1.62z" stroke="#fff" stroke-opacity="0" fill="#666"/><path d="M158.18 1263.3c-5.92 0-10.7-4.82-10.7-10.73 0-5.9 4.82-10.68 10.74-10.68s10.7 4.8 10.7 10.72c0 4.02-2.03 7.44-5.57 9.37-1.67.9-3.28 1.3-5.17 1.3zm0-18c-4.1-.02-7.44 3.27-7.46 7.38-.03 2.78 1.4 5.16 3.86 6.46 2.3 1.26 4.9 1.26 7.22 0 2.5-1.32 3.95-3.76 3.9-6.6-.08-4.08-3.45-7.33-7.52-7.24zM165.9 1318.1h-51.87c-.88 0-1.6-.7-1.6-1.6v-3.45c-.05-12.46 8.2-22.94 20.32-25.9.44-.1.83-.05 1.22.14 3.85 2.07 8.1 2.07 12 0 .33-.2.72-.26 1.16-.14 12.16 2.92 20.42 13.4 20.37 25.9v3.43c0 .9-.72 1.6-1.6 1.6zm-50.2-3.22h48.55v-1.83c0-10.72-6.94-19.75-17.34-22.54-4.56 2.2-9.36 2.2-13.93 0-10.4 2.8-17.28 11.83-17.28 22.55z" stroke="#fff" stroke-opacity="0" fill="#666"/><path d="M140.02 1292.04c-2.57 0-4.76-.55-7.04-1.77-7.06-3.88-9.66-12.7-5.8-19.8 3.88-7.04 12.72-9.63 19.82-5.8 7.07 3.9 9.67 12.72 5.8 19.8-1.4 2.56-3.23 4.4-5.8 5.8-2.25 1.22-4.44 1.77-6.98 1.77zm0-25.5c-4.23-.05-7.88 2.08-9.93 5.8-2.93 5.4-.94 12.16 4.46 15.1 3.5 1.87 7.36 1.87 10.86 0 3.77-2.04 5.93-5.68 5.87-9.94-.1-6.12-5.15-11.04-11.28-10.95z" stroke="#fff" stroke-opacity="0" fill="#666"/><path d="M176.94 1281.7H139.1c-.64 0-1.16-.52-1.16-1.18v-2.5c-.04-9.1 5.98-16.75 14.82-18.9.32-.08.6-.04.88.1 2.8 1.5 5.9 1.5 8.76 0 .24-.14.52-.18.84-.1 8.88 2.13 14.9 9.78 14.87 18.9v2.5c0 .66-.52 1.18-1.16 1.18zm-36.63-2.35h35.44V1278c0-7.8-5.06-14.4-12.66-16.43-3.33 1.6-6.83 1.6-10.16 0-7.6 2.03-12.6 8.62-12.6 16.44z" stroke="#fff" stroke-opacity="0" stroke-width=".73" fill="#fff" fill-opacity="0"/><path d="M140.9 1281.7h-37.84c-.64 0-1.17-.52-1.17-1.18v-2.5c-.05-9.1 5.98-16.75 14.82-18.9.32-.08.6-.04.88.1 2.8 1.5 5.9 1.5 8.76 0 .24-.14.52-.18.84-.1 8.88 2.13 14.9 9.78 14.86 18.9v2.5c0 .66-.52 1.18-1.16 1.18zm-36.64-2.35h35.43V1278c0-7.8-5.07-14.4-12.66-16.43-3.33 1.6-6.83 1.6-10.16 0-7.6 2.03-12.62 8.62-12.62 16.44z" stroke="#fff" stroke-opacity="0" stroke-width=".73" fill="#fff" fill-opacity="0"/><use xlink:href="#M" transform="matrix(1,0,0,1,71.89407051786873,1327.1059294821314) translate(18.228395061728392 14.222222222222223)"/><use xlink:href="#g" transform="matrix(1,0,0,1,71.89407051786873,1327.1059294821314) translate(81.33950617283952 14.222222222222223)"/><path d="M178.6 561.5h366.27" stroke="#333" fill="none"/><path d="M178.62 561.98h-.5v-.95h.5z" stroke="#333" stroke-width=".05" fill="#333"/><path d="M559.63 561.5l-14.26 4.64v-9.27z" stroke="#333" fill="#333"/><path d="M178.6 1280h366.27" stroke="#333" fill="none"/><path d="M178.62 1280.47h-.5v-.94h.5z" stroke="#333" stroke-width=".05" fill="#333"/><path d="M559.63 1280l-14.26 4.63v-9.27z" stroke="#333" fill="#333"/><path d="M1220 1220h120v120h-120v-120z" stroke="#fff" stroke-opacity="0" stroke-width="2" fill="#d86613"/><path d="M1316.8 1284.8h-8.02v-3.18h8.02v-38.44h-38.43v8.02h-3.2v-8.02c0-1.75 1.45-3.18 3.2-3.18h38.43c1.75 0 3.18 1.43 3.18 3.18v38.44c0 1.75-1.43 3.18-3.18 3.18zM1281.6 1320h-38.43c-1.75 0-3.2-1.43-3.2-3.18v-38.44c0-1.75 1.45-3.18 3.2-3.18h8v3.18h-8v38.44h38.43v-8.02h3.18v8.02c0 1.75-1.43 3.18-3.18 3.18z" stroke="#fff" stroke-opacity="0" stroke-width="2" fill="#fff"/><path d="M1305.6 1265.6v-3.2h-4.8c-.12-1.7-1.5-3.1-3.2-3.2v-4.8h-3.2v4.8h-4.77v-4.8h-3.23v4.8h-4.8v-4.8h-3.2v4.8h-4.8v-4.8h-3.17v4.8h-4.82v-4.8h-3.2v4.8c-1.7.12-3.1 1.5-3.2 3.2h-4.8v3.2h4.8v4.83h-4.8v3.17h4.8v4.8h-4.8v3.2h4.8v4.8h-4.8v3.23h4.8v4.76h-4.8v3.2h4.8c.12 1.7 1.5 3.1 3.2 3.2v4.8h3.2v-4.8h4.83v4.8h3.17v-4.8h4.8v4.8h3.2v-4.8h4.8v4.8h3.23v-4.8h4.76v4.8h3.2v-4.8c1.7-.12 3.1-1.5 3.2-3.2h4.8v-3.2h-4.8v-4.77h4.8v-3.23h-4.8v-4.8h4.8v-3.2h-4.8v-4.8h4.8v-3.17h-4.8v-4.82zm-8 31.7c0 .16-.14.3-.3.3h-34.6c-.16 0-.3-.14-.3-.3v-34.6c0-.16.14-.3.3-.3h34.6c.16 0 .3.14.3.3z" stroke="#fff" stroke-opacity="0" stroke-width="2" fill="#fff"/><use xlink:href="#J" transform="matrix(1,0,0,1,1190,1349) translate(51.5 14.4)"/><use xlink:href="#C" transform="matrix(1,0,0,1,1190,1349) translate(96.5 14.4)"/><path d="M1340.5 1280h326.25a12 12 0 0 0 12-12v-261.86" stroke="#333" fill="none"/><path d="M1340.5 1280.47h-.5v-.94h.5z" stroke="#333" stroke-width=".05" fill="#333"/><path d="M1678.75 991.37l4.63 14.27h-9.27z" stroke="#333" fill="#333"/><path d="M1341.75 920.75h256.12" stroke="#333" fill="none"/><path d="M1341.76 921.23h-.5v-.95h.5z" stroke="#333" stroke-width=".05" fill="#333"/><path d="M1612.63 920.75l-14.26 4.64v-9.28z" stroke="#333" fill="#333"/><path d="M1339.25 562.75h327.5a12 12 0 0 1 12 12v269.62" stroke="#333" fill="none"/><path d="M1339.26 563.23h-.5v-.96h.5z" stroke="#333" stroke-width=".05" fill="#333"/><path d="M1678.75 859.13l-4.63-14.26h9.27z" stroke="#333" fill="#333"/><path d="M960 768.75c-22.08 0-40-17.92-40-40s17.92-40 40-40 40 17.92 40 40-17.92 40-40 40zm0-76.8c-20.32 0-36.8 16.48-36.8 36.8 0 20.32 16.48 36.8 36.8 36.8 20.32 0 36.8-16.48 36.8-36.8 0-20.32-16.48-36.8-36.8-36.8z" stroke="#fff" stroke-opacity="0" stroke-width="3" fill="#693cc5"/><path d="M983.86 739.94h-3.06v-6.4c0-.9-.7-1.58-1.58-1.58h-4.83v-6.4c0-.9-.73-1.6-1.6-1.6h-11.2v-4.8h11.2c.87 0 1.6-.75 1.6-1.6v-14.42c0-.9-.73-1.6-1.6-1.6h-25.6c-.88 0-1.6.7-1.6 1.6v14.43c0 .84.72 1.6 1.6 1.6h11.2v4.8h-11.2c-.88 0-1.6.7-1.6 1.6v6.38h-4.78c-.9 0-1.63.7-1.63 1.6v6.4h-3.06c-.87 0-1.58.73-1.58 1.58v8.03c0 .9.7 1.6 1.58 1.6h7.84c.92 0 1.63-.7 1.63-1.6v-8.03c0-.85-.7-1.6-1.62-1.6h-1.58v-4.8h8v4.8h-1.58c-.92 0-1.63.75-1.63 1.6v8.03c0 .9.7 1.6 1.62 1.6h8c.86 0 1.57-.7 1.57-1.6v-8.03c0-.85-.72-1.6-1.58-1.6h-3.2v-6.4c0-.88-.73-1.57-1.64-1.57h-3.16v-4.82h22.36v4.82h-3.16c-.92 0-1.63.7-1.63 1.58v6.4h-3.22c-.86 0-1.58.74-1.58 1.6v8.02c0 .9.72 1.6 1.58 1.6h8c.9 0 1.63-.7 1.63-1.6v-8.03c0-.85-.7-1.6-1.62-1.6h-1.58v-4.8h8v4.8h-1.74c-.86 0-1.58.75-1.58 1.6v8.03c0 .9.72 1.6 1.58 1.6h8.05c.88 0 1.6-.7 1.6-1.6v-8.03-.05c-.06-.85-.78-1.54-1.64-1.54zm-41.46 8h-4.63v-4.78h4.63zm12.8-4.78v4.77h-4.8v-4.77zm-6.38-27.23v-11.16h22.36v11.16zm20.78 32h-4.8v-4.77h4.8zm12.63 0h-4.8v-4.77h4.8z" stroke="#fff" stroke-opacity="0" stroke-width="3" fill="#693cc5"/><g><use xlink:href="#N" transform="matrix(1,0,0,1,890,777.75) translate(3.5749999999999886 14.4)"/><use xlink:href="#O" transform="matrix(1,0,0,1,890,777.75) translate(96.425 14.4)"/><use xlink:href="#P" transform="matrix(1,0,0,1,890,777.75) translate(34.55 36)"/></g><path d="M681.75 562.75H948a12 12 0 0 1 12 12v97.62" stroke="#333" fill="none"/><path d="M681.76 563.23h-.5v-.96h.5z" stroke="#333" stroke-width=".05" fill="#333"/><path d="M960 687.13l-4.63-14.26h9.26z" stroke="#333" fill="#333"/><path d="M1000.5 728.75h266.25a12 12 0 0 0 12-12v-77.62" stroke="#333" fill="none"/><path d="M1000.5 729.23h-.53l.03-.48-.02-.48h.53z" stroke="#333" stroke-width=".05" fill="#333"/><path d="M1278.75 624.37l4.63 14.26h-9.27z" stroke="#333" fill="#333"/><path d="M1000.5 728.75h268.75a12 12 0 0 1 12 12v103.62" stroke="#333" fill="none"/><path d="M1000.5 729.23h-.53l.03-.48-.02-.48h.53z" stroke="#333" stroke-width=".05" fill="#333"/><path d="M1281.25 859.13l-4.63-14.26h9.27z" stroke="#333" fill="#333"/><path d="M960 769.25V1078a12 12 0 0 0 12 12h296a12 12 0 0 1 12 12v101.62" stroke="#333" fill="none"/><path d="M960 768.75l.48-.02v.53h-.96v-.54z" stroke="#333" stroke-width=".05" fill="#333"/><path d="M1280 1218.38l-4.63-14.26h9.27z" stroke="#333" fill="#333"/><path d="M681.75 1280h521.87" stroke="#333" fill="none"/><path d="M681.76 1280.47h-.5v-.94h.5z" stroke="#333" stroke-width=".05" fill="#333"/><path d="M1218.38 1280l-14.26 4.63v-9.27z" stroke="#333" fill="#333"/><path d="M681.75 1280H898a12 12 0 0 0 12-12V932.75a12 12 0 0 1 12-12h282.87" stroke="#333" fill="none"/><path d="M681.76 1280.47h-.5v-.94h.5z" stroke="#333" stroke-width=".05" fill="#333"/><path d="M1219.63 920.75l-14.26 4.64v-9.28z" stroke="#333" fill="#333"/><path d="M681.75 1280H848a12 12 0 0 0 12-12V574.75a12 12 0 0 1 12-12h330.37" stroke="#333" fill="none"/><path d="M681.76 1280.47h-.5v-.94h.5z" stroke="#333" stroke-width=".05" fill="#333"/><path d="M1217.13 562.75l-14.26 4.63v-9.26z" stroke="#333" fill="#333"/><defs><path fill="#666" d="M30-248c87 1 191-15 191 75 0 78-77 80-158 76V0H30v-248zm33 125c57 0 124 11 124-50 0-59-68-47-124-48v98" id="Q"/><path fill="#666" d="M114-163C36-179 61-72 57 0H25l-1-190h30c1 12-1 29 2 39 6-27 23-49 58-41v29" id="R"/><path fill="#666" d="M24-231v-30h32v30H24zM24 0v-190h32V0H24" id="S"/><path fill="#666" d="M108 0H70L1-190h34L89-25l56-165h34" id="T"/><path fill="#666" d="M141-36C126-15 110 5 73 4 37 3 15-17 15-53c-1-64 63-63 125-63 3-35-9-54-41-54-24 1-41 7-42 31l-33-3c5-37 33-52 76-52 45 0 72 20 72 64v82c-1 20 7 32 28 27v20c-31 9-61-2-59-35zM48-53c0 20 12 33 32 33 41-3 63-29 60-74-43 2-92-5-92 41" id="U"/><path fill="#666" d="M59-47c-2 24 18 29 38 22v24C64 9 27 4 27-40v-127H5v-23h24l9-43h21v43h35v23H59v120" id="V"/><path fill="#666" d="M100-194c63 0 86 42 84 106H49c0 40 14 67 53 68 26 1 43-12 49-29l28 8c-11 28-37 45-77 45C44 4 14-33 15-96c1-61 26-98 85-98zm52 81c6-60-76-77-97-28-3 7-6 17-6 28h103" id="W"/><g id="a"><use transform="matrix(0.04938271604938272,0,0,0.04938271604938272,0,0)" xlink:href="#Q"/><use transform="matrix(0.04938271604938272,0,0,0.04938271604938272,11.851851851851853,0)" xlink:href="#R"/><use transform="matrix(0.04938271604938272,0,0,0.04938271604938272,17.728395061728396,0)" xlink:href="#S"/><use transform="matrix(0.04938271604938272,0,0,0.04938271604938272,21.62962962962963,0)" xlink:href="#T"/><use transform="matrix(0.04938271604938272,0,0,0.04938271604938272,30.518518518518523,0)" xlink:href="#U"/><use transform="matrix(0.04938271604938272,0,0,0.04938271604938272,40.39506172839506,0)" xlink:href="#V"/><use transform="matrix(0.04938271604938272,0,0,0.04938271604938272,45.333333333333336,0)" xlink:href="#W"/></g><path fill="#666" d="M185-189c-5-48-123-54-124 2 14 75 158 14 163 119 3 78-121 87-175 55-17-10-28-26-33-46l33-7c5 56 141 63 141-1 0-78-155-14-162-118-5-82 145-84 179-34 5 7 8 16 11 25" id="X"/><path fill="#666" d="M84 4C-5 8 30-112 23-190h32v120c0 31 7 50 39 49 72-2 45-101 50-169h31l1 190h-30c-1-10 1-25-2-33-11 22-28 36-60 37" id="Y"/><path fill="#666" d="M115-194c53 0 69 39 70 98 0 66-23 100-70 100C84 3 66-7 56-30L54 0H23l1-261h32v101c10-23 28-34 59-34zm-8 174c40 0 45-34 45-75 0-40-5-75-45-74-42 0-51 32-51 76 0 43 10 73 51 73" id="Z"/><path fill="#666" d="M117-194c89-4 53 116 60 194h-32v-121c0-31-8-49-39-48C34-167 62-67 57 0H25l-1-190h30c1 10-1 24 2 32 11-22 29-35 61-36" id="aa"/><g id="b"><use transform="matrix(0.04938271604938272,0,0,0.04938271604938272,0,0)" xlink:href="#X"/><use transform="matrix(0.04938271604938272,0,0,0.04938271604938272,11.851851851851853,0)" xlink:href="#Y"/><use transform="matrix(0.04938271604938272,0,0,0.04938271604938272,21.7283950617284,0)" xlink:href="#Z"/><use transform="matrix(0.04938271604938272,0,0,0.04938271604938272,31.60493827160494,0)" xlink:href="#aa"/><use transform="matrix(0.04938271604938272,0,0,0.04938271604938272,41.48148148148149,0)" xlink:href="#W"/><use transform="matrix(0.04938271604938272,0,0,0.04938271604938272,51.35802469135803,0)" xlink:href="#V"/></g><path fill="#666" d="M101-251c82-7 93 87 43 132L82-64C71-53 59-42 53-27h129V0H18c2-99 128-94 128-182 0-28-16-43-45-43s-46 15-49 41l-32-3c6-41 34-60 81-64" id="ab"/><use transform="matrix(0.04938271604938272,0,0,0.04938271604938272,0,0)" xlink:href="#ab" id="c"/><path fill="#666" d="M24 0v-261h32V0H24" id="ac"/><path fill="#666" d="M96-169c-40 0-48 33-48 73s9 75 48 75c24 0 41-14 43-38l32 2c-6 37-31 61-74 61-59 0-76-41-82-99-10-93 101-131 147-64 4 7 5 14 7 22l-32 3c-4-21-16-35-41-35" id="ad"/><g id="d"><use transform="matrix(0.04938271604938272,0,0,0.04938271604938272,0,0)" xlink:href="#Q"/><use transform="matrix(0.04938271604938272,0,0,0.04938271604938272,11.851851851851853,0)" xlink:href="#Y"/><use transform="matrix(0.04938271604938272,0,0,0.04938271604938272,21.7283950617284,0)" xlink:href="#Z"/><use transform="matrix(0.04938271604938272,0,0,0.04938271604938272,31.60493827160494,0)" xlink:href="#ac"/><use transform="matrix(0.04938271604938272,0,0,0.04938271604938272,35.50617283950618,0)" xlink:href="#S"/><use transform="matrix(0.04938271604938272,0,0,0.04938271604938272,39.40740740740741,0)" xlink:href="#ad"/></g><path fill="#666" d="M126-127c33 6 58 20 58 59 0 88-139 92-164 29-3-8-5-16-6-25l32-3c6 27 21 44 54 44 32 0 52-15 52-46 0-38-36-46-79-43v-28c39 1 72-4 72-42 0-27-17-43-46-43-28 0-47 15-49 41l-32-3c6-42 35-63 81-64 48-1 79 21 79 65 0 36-21 52-52 59" id="ae"/><use transform="matrix(0.04938271604938272,0,0,0.04938271604938272,0,0)" xlink:href="#ae" id="e"/><path fill="#666" d="M205 0l-28-72H64L36 0H1l101-248h38L239 0h-34zm-38-99l-47-123c-12 45-31 82-46 123h93" id="af"/><path fill="#666" d="M115-194c55 1 70 41 70 98S169 2 115 4C84 4 66-9 55-30l1 105H24l-1-265h31l2 30c10-21 28-34 59-34zm-8 174c40 0 45-34 45-75s-6-73-45-74c-42 0-51 32-51 76 0 43 10 73 51 73" id="ag"/><g id="f"><use transform="matrix(0.04938271604938272,0,0,0.04938271604938272,0,0)" xlink:href="#af"/><use transform="matrix(0.04938271604938272,0,0,0.04938271604938272,11.851851851851853,0)" xlink:href="#ag"/><use transform="matrix(0.04938271604938272,0,0,0.04938271604938272,21.7283950617284,0)" xlink:href="#ag"/></g><path fill="#666" d="M232-93c-1 65-40 97-104 97C67 4 28-28 28-90v-158h33c8 89-33 224 67 224 102 0 64-133 71-224h33v155" id="ah"/><path fill="#666" d="M135-143c-3-34-86-38-87 0 15 53 115 12 119 90S17 21 10-45l28-5c4 36 97 45 98 0-10-56-113-15-118-90-4-57 82-63 122-42 12 7 21 19 24 35" id="ai"/><g id="g"><use transform="matrix(0.04938271604938272,0,0,0.04938271604938272,0,0)" xlink:href="#ah"/><use transform="matrix(0.04938271604938272,0,0,0.04938271604938272,12.790123456790125,0)" xlink:href="#ai"/><use transform="matrix(0.04938271604938272,0,0,0.04938271604938272,21.679012345679013,0)" xlink:href="#W"/><use transform="matrix(0.04938271604938272,0,0,0.04938271604938272,31.555555555555557,0)" xlink:href="#R"/></g><path fill="#666" d="M199 0l-22-63H83L61 0H9l90-248h61L250 0h-51zm-33-102l-36-108c-10 38-24 72-36 108h72" id="aj"/><path fill="#666" d="M210 0H11v-37l134-170H24v-41h178v36L68-41h142V0" id="ak"/><g id="h"><use transform="matrix(0.04938271604938272,0,0,0.04938271604938272,0,0)" xlink:href="#aj"/><use transform="matrix(0.04938271604938272,0,0,0.04938271604938272,12.790123456790125,0)" xlink:href="#ak"/></g><path fill="#666" d="M133-34C117-15 103 5 69 4 32 3 11-16 11-54c-1-60 55-63 116-61 1-26-3-47-28-47-18 1-26 9-28 27l-52-2c7-38 36-58 82-57s74 22 75 68l1 82c-1 14 12 18 25 15v27c-30 8-71 5-69-32zm-48 3c29 0 43-24 42-57-32 0-66-3-65 30 0 17 8 27 23 27" id="al"/><use transform="matrix(0.04938271604938272,0,0,0.04938271604938272,0,0)" xlink:href="#al" id="i"/><path fill="#666" d="M135-194c52 0 70 43 70 98 0 56-19 99-73 100-30 1-46-15-58-35L72 0H24l1-261h50v104c11-23 29-37 60-37zM114-30c31 0 40-27 40-66 0-37-7-63-39-63s-41 28-41 65c0 36 8 64 40 64" id="am"/><use transform="matrix(0.04938271604938272,0,0,0.04938271604938272,0,0)" xlink:href="#am" id="j"/><path fill="#666" d="M27 0v-27h64v-190l-56 39v-29l58-41h29v221h61V0H27" id="an"/><use transform="matrix(0.04938271604938272,0,0,0.04938271604938272,0,0)" xlink:href="#an" id="k"/><path fill="#666" d="M155-56V0h-30v-56H8v-25l114-167h33v167h35v25h-35zm-30-156c-27 46-58 90-88 131h88v-131" id="ao"/><use transform="matrix(0.04938271604938272,0,0,0.04938271604938272,0,0)" xlink:href="#ao" id="l"/><path fill="#666" d="M147 0H94L2-248h55l64 206c17-72 42-137 63-206h54" id="ap"/><path fill="#666" d="M24-248c93 1 206-16 204 79-1 75-69 88-152 82V0H24v-248zm52 121c47 0 100 7 100-41 0-47-54-39-100-39v80" id="aq"/><path fill="#666" d="M67-125c0 53 21 87 73 88 37 1 54-22 65-47l45 17C233-25 199 4 140 4 58 4 20-42 15-125 8-235 124-281 211-232c18 10 29 29 36 50l-46 12c-8-25-30-41-62-41-52 0-71 34-72 86" id="ar"/><g id="m"><use transform="matrix(0.04938271604938272,0,0,0.04938271604938272,0,0)" xlink:href="#ap"/><use transform="matrix(0.04938271604938272,0,0,0.04938271604938272,11.851851851851853,0)" xlink:href="#aq"/><use transform="matrix(0.04938271604938272,0,0,0.04938271604938272,23.703703703703706,0)" xlink:href="#ar"/></g><path fill="#666" d="M23 0v-37h61v-169l-59 37v-38l62-41h46v211h57V0H23" id="as"/><path fill="#666" d="M101-251c68 0 84 54 84 127C185-50 166 4 99 4S15-52 14-124c-1-75 17-127 87-127zm-1 216c37-5 36-46 36-89s4-89-36-89c-39 0-36 45-36 89 0 43-3 85 36 89" id="at"/><path fill="#666" d="M24 0v-54h51V0H24" id="au"/><path fill="#666" d="M4 7l51-268h42L46 7H4" id="av"/><path fill="#666" d="M115-159c48 0 72 30 72 78 0 54-30 85-83 85-64 0-91-50-91-122 0-98 58-163 141-120 15 8 21 24 27 44l-47 6c-5-31-48-31-61-4-7 14-11 33-11 60 9-17 28-27 53-27zM102-35c24 0 36-20 36-45s-11-43-37-43c-23 0-36 14-36 38 0 27 11 50 37 50" id="aw"/><g id="n"><use transform="matrix(0.04938271604938272,0,0,0.04938271604938272,0,0)" xlink:href="#as"/><use transform="matrix(0.04938271604938272,0,0,0.04938271604938272,9.876543209876544,0)" xlink:href="#at"/><use transform="matrix(0.04938271604938272,0,0,0.04938271604938272,19.75308641975309,0)" xlink:href="#au"/><use transform="matrix(0.04938271604938272,0,0,0.04938271604938272,24.69135802469136,0)" xlink:href="#at"/><use transform="matrix(0.04938271604938272,0,0,0.04938271604938272,34.567901234567906,0)" xlink:href="#au"/><use transform="matrix(0.04938271604938272,0,0,0.04938271604938272,39.50617283950618,0)" xlink:href="#at"/><use transform="matrix(0.04938271604938272,0,0,0.04938271604938272,49.38271604938272,0)" xlink:href="#au"/><use transform="matrix(0.04938271604938272,0,0,0.04938271604938272,54.320987654320994,0)" xlink:href="#at"/><use transform="matrix(0.04938271604938272,0,0,0.04938271604938272,64.19753086419755,0)" xlink:href="#av"/><use transform="matrix(0.04938271604938272,0,0,0.04938271604938272,69.13580246913583,0)" xlink:href="#as"/><use transform="matrix(0.04938271604938272,0,0,0.04938271604938272,79.01234567901237,0)" xlink:href="#aw"/></g><path fill="#666" d="M275 0h-61l-44-196L126 0H64L0-248h53L97-49l45-199h58l43 199 44-199h52" id="ax"/><path fill="#666" d="M169-182c-1-43-94-46-97-3 18 66 151 10 154 114 3 95-165 93-204 36-6-8-10-19-12-30l50-8c3 46 112 56 116 5-17-69-150-10-154-114-4-87 153-88 188-35 5 8 8 18 10 28" id="ay"/><g id="o"><use transform="matrix(0.04938271604938272,0,0,0.04938271604938272,0,0)" xlink:href="#aj"/><use transform="matrix(0.04938271604938272,0,0,0.04938271604938272,11.80246913580247,0)" xlink:href="#ax"/><use transform="matrix(0.04938271604938272,0,0,0.04938271604938272,28.543209876543205,0)" xlink:href="#ay"/></g><path fill="#a9afb8" d="M24 0v-248h195v40H76v63h132v40H76v65h150V0H24" id="az"/><path fill="#a9afb8" d="M24-248c93 1 206-16 204 79-1 75-69 88-152 82V0H24v-248zm52 121c47 0 100 7 100-41 0-47-54-39-100-39v80" id="aA"/><path fill="#a9afb8" d="M199 0l-22-63H83L61 0H9l90-248h61L250 0h-51zm-33-102l-36-108c-10 38-24 72-36 108h72" id="aB"/><path fill="#a9afb8" d="M230 0l2-204L168 0h-37L68-204 70 0H24v-248h70l56 185 57-185h69V0h-46" id="aC"/><g id="p"><use transform="matrix(0.0728395061728395,0,0,0.0728395061728395,0,0)" xlink:href="#az"/><use transform="matrix(0.0728395061728395,0,0,0.0728395061728395,17.48148148148148,0)" xlink:href="#aA"/><use transform="matrix(0.0728395061728395,0,0,0.0728395061728395,32.99629629629629,0)" xlink:href="#aB"/><use transform="matrix(0.0728395061728395,0,0,0.0728395061728395,51.861728395061725,0)" xlink:href="#aC"/></g><path fill="#a9afb8" d="M14-72v-43h91v43H14" id="aD"/><use transform="matrix(0.0728395061728395,0,0,0.0728395061728395,0,0)" xlink:href="#aD" id="q"/><path fill="#a9afb8" d="M76-208v77h127v40H76V0H24v-248h183v40H76" id="aE"/><path fill="#a9afb8" d="M25-224v-37h50v37H25zM25 0v-190h50V0H25" id="aF"/><path fill="#a9afb8" d="M135-194c87-1 58 113 63 194h-50c-7-57 23-157-34-157-59 0-34 97-39 157H25l-1-190h47c2 12-1 28 3 38 12-26 28-41 61-42" id="aG"/><path fill="#a9afb8" d="M133-34C117-15 103 5 69 4 32 3 11-16 11-54c-1-60 55-63 116-61 1-26-3-47-28-47-18 1-26 9-28 27l-52-2c7-38 36-58 82-57s74 22 75 68l1 82c-1 14 12 18 25 15v27c-30 8-71 5-69-32zm-48 3c29 0 43-24 42-57-32 0-66-3-65 30 0 17 8 27 23 27" id="aH"/><path fill="#a9afb8" d="M25 0v-261h50V0H25" id="aI"/><g id="r"><use transform="matrix(0.0728395061728395,0,0,0.0728395061728395,0,0)" xlink:href="#aE"/><use transform="matrix(0.0728395061728395,0,0,0.0728395061728395,15.95185185185185,0)" xlink:href="#aF"/><use transform="matrix(0.0728395061728395,0,0,0.0728395061728395,23.235802469135802,0)" xlink:href="#aG"/><use transform="matrix(0.0728395061728395,0,0,0.0728395061728395,39.187654320987654,0)" xlink:href="#aH"/><use transform="matrix(0.0728395061728395,0,0,0.0728395061728395,53.75555555555555,0)" xlink:href="#aI"/></g><path fill="#a9afb8" d="M136-208V0H84v-208H4v-40h212v40h-80" id="aJ"/><path fill="#a9afb8" d="M137-138c1-29-70-34-71-4 15 46 118 7 119 86 1 83-164 76-172 9l43-7c4 19 20 25 44 25 33 8 57-30 24-41C81-84 22-81 20-136c-2-80 154-74 161-7" id="aK"/><path fill="#a9afb8" d="M147 0L96-86 75-71V0H25v-261h50v150l67-79h53l-66 74L201 0h-54" id="aL"/><g id="s"><use transform="matrix(0.0728395061728395,0,0,0.0728395061728395,0,0)" xlink:href="#aJ"/><use transform="matrix(0.0728395061728395,0,0,0.0728395061728395,13.985185185185184,0)" xlink:href="#aH"/><use transform="matrix(0.0728395061728395,0,0,0.0728395061728395,28.553086419753086,0)" xlink:href="#aK"/><use transform="matrix(0.0728395061728395,0,0,0.0728395061728395,43.120987654320984,0)" xlink:href="#aL"/></g><path fill="#a9afb8" d="M266 0h-40l-56-210L115 0H75L2-248h35L96-30l15-64 43-154h32l59 218 59-218h35" id="aM"/><path fill="#a9afb8" d="M24-231v-30h32v30H24zM24 0v-190h32V0H24" id="aN"/><path fill="#a9afb8" d="M24 0v-261h32V0H24" id="aO"/><path fill="#a9afb8" d="M141-36C126-15 110 5 73 4 37 3 15-17 15-53c-1-64 63-63 125-63 3-35-9-54-41-54-24 1-41 7-42 31l-33-3c5-37 33-52 76-52 45 0 72 20 72 64v82c-1 20 7 32 28 27v20c-31 9-61-2-59-35zM48-53c0 20 12 33 32 33 41-3 63-29 60-74-43 2-92-5-92 41" id="aP"/><path fill="#a9afb8" d="M210-169c-67 3-38 105-44 169h-31v-121c0-29-5-50-35-48C34-165 62-65 56 0H25l-1-190h30c1 10-1 24 2 32 10-44 99-50 107 0 11-21 27-35 58-36 85-2 47 119 55 194h-31v-121c0-29-5-49-35-48" id="aQ"/><g id="t"><use transform="matrix(0.04248971193415638,0,0,0.04248971193415638,0,0)" xlink:href="#aM"/><use transform="matrix(0.04248971193415638,0,0,0.04248971193415638,14.404012345679012,0)" xlink:href="#aN"/><use transform="matrix(0.04248971193415638,0,0,0.04248971193415638,17.760699588477365,0)" xlink:href="#aO"/><use transform="matrix(0.04248971193415638,0,0,0.04248971193415638,21.11738683127572,0)" xlink:href="#aO"/><use transform="matrix(0.04248971193415638,0,0,0.04248971193415638,24.474074074074075,0)" xlink:href="#aN"/><use transform="matrix(0.04248971193415638,0,0,0.04248971193415638,27.830761316872433,0)" xlink:href="#aP"/><use transform="matrix(0.04248971193415638,0,0,0.04248971193415638,36.3287037037037,0)" xlink:href="#aQ"/></g><path fill="#a9afb8" d="M205 0l-28-72H64L36 0H1l101-248h38L239 0h-34zm-38-99l-47-123c-12 45-31 82-46 123h93" id="aR"/><path fill="#a9afb8" d="M117-194c89-4 53 116 60 194h-32v-121c0-31-8-49-39-48C34-167 62-67 57 0H25l-1-190h30c1 10-1 24 2 32 11-22 29-35 61-36" id="aS"/><path fill="#a9afb8" d="M85-194c31 0 48 13 60 33l-1-100h32l1 261h-30c-2-10 0-23-3-31C134-8 116 4 85 4 32 4 16-35 15-94c0-66 23-100 70-100zm9 24c-40 0-46 34-46 75 0 40 6 74 45 74 42 0 51-32 51-76 0-42-9-74-50-73" id="aT"/><path fill="#a9afb8" d="M114-163C36-179 61-72 57 0H25l-1-190h30c1 12-1 29 2 39 6-27 23-49 58-41v29" id="aU"/><path fill="#a9afb8" d="M100-194c63 0 86 42 84 106H49c0 40 14 67 53 68 26 1 43-12 49-29l28 8c-11 28-37 45-77 45C44 4 14-33 15-96c1-61 26-98 85-98zm52 81c6-60-76-77-97-28-3 7-6 17-6 28h103zm-74-98c8-23 27-35 38-54h36v5l-58 49H78" id="aV"/><path fill="#a9afb8" d="M135-143c-3-34-86-38-87 0 15 53 115 12 119 90S17 21 10-45l28-5c4 36 97 45 98 0-10-56-113-15-118-90-4-57 82-63 122-42 12 7 21 19 24 35" id="aW"/><g id="u"><use transform="matrix(0.04248971193415638,0,0,0.04248971193415638,0,0)" xlink:href="#aR"/><use transform="matrix(0.04248971193415638,0,0,0.04248971193415638,10.19753086419753,0)" xlink:href="#aS"/><use transform="matrix(0.04248971193415638,0,0,0.04248971193415638,18.695473251028805,0)" xlink:href="#aT"/><use transform="matrix(0.04248971193415638,0,0,0.04248971193415638,27.193415637860078,0)" xlink:href="#aU"/><use transform="matrix(0.04248971193415638,0,0,0.04248971193415638,32.249691358024684,0)" xlink:href="#aV"/><use transform="matrix(0.04248971193415638,0,0,0.04248971193415638,40.74763374485596,0)" xlink:href="#aW"/></g><path fill="#a9afb8" d="M160-131c35 5 61 23 61 61C221 17 115-2 30 0v-248c76 3 177-17 177 60 0 33-19 50-47 57zm-97-11c50-1 110 9 110-42 0-47-63-36-110-37v79zm0 115c55-2 124 14 124-45 0-56-70-42-124-44v89" id="aX"/><path fill="#a9afb8" d="M100-194c63 0 86 42 84 106H49c0 40 14 67 53 68 26 1 43-12 49-29l28 8c-11 28-37 45-77 45C44 4 14-33 15-96c1-61 26-98 85-98zm52 81c6-60-76-77-97-28-3 7-6 17-6 28h103" id="aY"/><g id="v"><use transform="matrix(0.04248971193415638,0,0,0.04248971193415638,0,0)" xlink:href="#aX"/><use transform="matrix(0.04248971193415638,0,0,0.04248971193415638,10.19753086419753,0)" xlink:href="#aY"/><use transform="matrix(0.04248971193415638,0,0,0.04248971193415638,18.695473251028805,0)" xlink:href="#aU"/><use transform="matrix(0.04248971193415638,0,0,0.04248971193415638,23.751748971193415,0)" xlink:href="#aS"/><use transform="matrix(0.04248971193415638,0,0,0.04248971193415638,32.24969135802469,0)" xlink:href="#aP"/><use transform="matrix(0.04248971193415638,0,0,0.04248971193415638,40.74763374485597,0)" xlink:href="#aO"/></g><path fill="#a9afb8" d="M32 76v-337h29V76H32" id="aZ"/><use transform="matrix(0.04248971193415638,0,0,0.04248971193415638,0,0)" xlink:href="#aZ" id="w"/><path fill="#a9afb8" d="M115-194c55 1 70 41 70 98S169 2 115 4C84 4 66-9 55-30l1 105H24l-1-265h31l2 30c10-21 28-34 59-34zm-8 174c40 0 45-34 45-75s-6-73-45-74c-42 0-51 32-51 76 0 43 10 73 51 73" id="ba"/><g id="x"><use transform="matrix(0.04248971193415638,0,0,0.04248971193415638,0,0)" xlink:href="#aR"/><use transform="matrix(0.04248971193415638,0,0,0.04248971193415638,10.19753086419753,0)" xlink:href="#ba"/><use transform="matrix(0.04248971193415638,0,0,0.04248971193415638,18.695473251028805,0)" xlink:href="#aU"/><use transform="matrix(0.04248971193415638,0,0,0.04248971193415638,23.751748971193415,0)" xlink:href="#aN"/><use transform="matrix(0.04248971193415638,0,0,0.04248971193415638,27.10843621399177,0)" xlink:href="#aO"/></g><path fill="#a9afb8" d="M27 0v-27h64v-190l-56 39v-29l58-41h29v221h61V0H27" id="bb"/><path fill="#a9afb8" d="M134-131c28 9 52 24 51 62-1 50-34 73-85 73S17-19 16-69c0-36 21-54 49-61-75-25-45-126 34-121 46 3 78 18 79 63 0 33-17 51-44 57zm-34-11c31 1 46-15 46-44 0-28-17-43-47-42-29 0-46 13-45 42 1 28 16 44 46 44zm1 122c35 0 51-18 51-52 0-30-18-46-53-46-33 0-51 17-51 47 0 34 19 51 53 51" id="bc"/><path fill="#a9afb8" d="M68-38c1 34 0 65-14 84H32c9-13 17-26 17-46H33v-38h35" id="bd"/><g id="y"><use transform="matrix(0.04248971193415638,0,0,0.04248971193415638,0,0)" xlink:href="#bb"/><use transform="matrix(0.04248971193415638,0,0,0.04248971193415638,8.497942386831275,0)" xlink:href="#bc"/><use transform="matrix(0.04248971193415638,0,0,0.04248971193415638,16.99588477366255,0)" xlink:href="#bd"/></g><path fill="#a9afb8" d="M101-251c82-7 93 87 43 132L82-64C71-53 59-42 53-27h129V0H18c2-99 128-94 128-182 0-28-16-43-45-43s-46 15-49 41l-32-3c6-41 34-60 81-64" id="be"/><path fill="#a9afb8" d="M101-251c68 0 85 55 85 127S166 4 100 4C33 4 14-52 14-124c0-73 17-127 87-127zm-1 229c47 0 54-49 54-102s-4-102-53-102c-51 0-55 48-55 102 0 53 5 102 54 102" id="bf"/><path fill="#a9afb8" d="M155-56V0h-30v-56H8v-25l114-167h33v167h35v25h-35zm-30-156c-27 46-58 90-88 131h88v-131" id="bg"/><g id="z"><use transform="matrix(0.04248971193415638,0,0,0.04248971193415638,0,0)" xlink:href="#be"/><use transform="matrix(0.04248971193415638,0,0,0.04248971193415638,8.497942386831275,0)" xlink:href="#bf"/><use transform="matrix(0.04248971193415638,0,0,0.04248971193415638,16.99588477366255,0)" xlink:href="#be"/><use transform="matrix(0.04248971193415638,0,0,0.04248971193415638,25.493827160493822,0)" xlink:href="#bg"/></g><path fill="#666" d="M190-63c-7 42-38 67-86 67-59 0-84-38-90-98-12-110 154-137 174-36l-49 2c-2-19-15-32-35-32-30 0-35 28-38 64-6 74 65 87 74 30" id="bh"/><use transform="matrix(0.04938271604938272,0,0,0.04938271604938272,0,0)" xlink:href="#bh" id="A"/><path d="M63-220v92h138v28H63V0H30v-248h175v28H63" id="bi"/><path d="M114-163C36-179 61-72 57 0H25l-1-190h30c1 12-1 29 2 39 6-27 23-49 58-41v29" id="bj"/><path d="M100-194c62-1 85 37 85 99 1 63-27 99-86 99S16-35 15-95c0-66 28-99 85-99zM99-20c44 1 53-31 53-75 0-43-8-75-51-75s-53 32-53 75 10 74 51 75" id="bk"/><path d="M117-194c89-4 53 116 60 194h-32v-121c0-31-8-49-39-48C34-167 62-67 57 0H25l-1-190h30c1 10-1 24 2 32 11-22 29-35 61-36" id="bl"/><path d="M59-47c-2 24 18 29 38 22v24C64 9 27 4 27-40v-127H5v-23h24l9-43h21v43h35v23H59v120" id="bm"/><g id="B"><use transform="matrix(0.05,0,0,0.05,0,0)" xlink:href="#bi"/><use transform="matrix(0.05,0,0,0.05,10.950000000000001,0)" xlink:href="#bj"/><use transform="matrix(0.05,0,0,0.05,16.900000000000002,0)" xlink:href="#bk"/><use transform="matrix(0.05,0,0,0.05,26.900000000000002,0)" xlink:href="#bl"/><use transform="matrix(0.05,0,0,0.05,36.900000000000006,0)" xlink:href="#bm"/></g><path d="M30 0v-248h187v28H63v79h144v27H63v87h162V0H30" id="bn"/><path d="M85-194c31 0 48 13 60 33l-1-100h32l1 261h-30c-2-10 0-23-3-31C134-8 116 4 85 4 32 4 16-35 15-94c0-66 23-100 70-100zm9 24c-40 0-46 34-46 75 0 40 6 74 45 74 42 0 51-32 51-76 0-42-9-74-50-73" id="bo"/><g id="C"><use transform="matrix(0.05,0,0,0.05,0,0)" xlink:href="#bn"/><use transform="matrix(0.05,0,0,0.05,12,0)" xlink:href="#bl"/><use transform="matrix(0.05,0,0,0.05,22,0)" xlink:href="#bo"/></g><path d="M190 0L58-211 59 0H30v-248h39L202-35l-2-213h31V0h-41" id="bp"/><path d="M205 0l-28-72H64L36 0H1l101-248h38L239 0h-34zm-38-99l-47-123c-12 45-31 82-46 123h93" id="bq"/><path d="M127-220V0H93v-220H8v-28h204v28h-85" id="br"/><g id="D"><use transform="matrix(0.05,0,0,0.05,0,0)" xlink:href="#bp"/><use transform="matrix(0.05,0,0,0.05,12.950000000000001,0)" xlink:href="#bq"/><use transform="matrix(0.05,0,0,0.05,23.6,0)" xlink:href="#br"/></g><path d="M30-248c118-7 216 8 213 122C240-48 200 0 122 0H30v-248zM63-27c89 8 146-16 146-99s-60-101-146-95v194" id="bs"/><path d="M100-194c63 0 86 42 84 106H49c0 40 14 67 53 68 26 1 43-12 49-29l28 8c-11 28-37 45-77 45C44 4 14-33 15-96c1-61 26-98 85-98zm52 81c6-60-76-77-97-28-3 7-6 17-6 28h103" id="bt"/><path d="M108 0H70L1-190h34L89-25l56-165h34" id="bu"/><path d="M24-231v-30h32v30H24zM24 0v-190h32V0H24" id="bv"/><path d="M96-169c-40 0-48 33-48 73s9 75 48 75c24 0 41-14 43-38l32 2c-6 37-31 61-74 61-59 0-76-41-82-99-10-93 101-131 147-64 4 7 5 14 7 22l-32 3c-4-21-16-35-41-35" id="bw"/><g id="E"><use transform="matrix(0.05,0,0,0.05,0,0)" xlink:href="#bs"/><use transform="matrix(0.05,0,0,0.05,12.950000000000001,0)" xlink:href="#bt"/><use transform="matrix(0.05,0,0,0.05,22.950000000000003,0)" xlink:href="#bu"/><use transform="matrix(0.05,0,0,0.05,31.950000000000003,0)" xlink:href="#bv"/><use transform="matrix(0.05,0,0,0.05,35.900000000000006,0)" xlink:href="#bw"/><use transform="matrix(0.05,0,0,0.05,44.900000000000006,0)" xlink:href="#bt"/></g><path d="M33 0v-248h34V0H33" id="bx"/><g id="F"><use transform="matrix(0.05,0,0,0.05,0,0)" xlink:href="#bx"/><use transform="matrix(0.05,0,0,0.05,5,0)" xlink:href="#bl"/><use transform="matrix(0.05,0,0,0.05,15,0)" xlink:href="#bm"/><use transform="matrix(0.05,0,0,0.05,20,0)" xlink:href="#bt"/><use transform="matrix(0.05,0,0,0.05,30,0)" xlink:href="#bj"/><use transform="matrix(0.05,0,0,0.05,35.95,0)" xlink:href="#bl"/><use transform="matrix(0.05,0,0,0.05,45.95,0)" xlink:href="#bt"/><use transform="matrix(0.05,0,0,0.05,55.95,0)" xlink:href="#bm"/></g><path d="M240 0l2-218c-23 76-54 145-80 218h-23L58-218 59 0H30v-248h44l77 211c21-75 51-140 76-211h43V0h-30" id="by"/><path d="M179-190L93 31C79 59 56 82 12 73V49c39 6 53-20 64-50L1-190h34L92-34l54-156h33" id="bz"/><path d="M185-189c-5-48-123-54-124 2 14 75 158 14 163 119 3 78-121 87-175 55-17-10-28-26-33-46l33-7c5 56 141 63 141-1 0-78-155-14-162-118-5-82 145-84 179-34 5 7 8 16 11 25" id="bA"/><path d="M140-251c81 0 123 46 123 126C263-53 228-8 163 1c7 30 30 48 69 40v23c-55 16-95-15-103-61C56-3 17-48 17-125c0-80 42-126 123-126zm0 227c63 0 89-41 89-101s-29-99-89-99c-61 0-89 39-89 99S79-25 140-24" id="bB"/><path d="M30 0v-248h33v221h125V0H30" id="bC"/><g id="H"><use transform="matrix(0.05,0,0,0.05,0,0)" xlink:href="#by"/><use transform="matrix(0.05,0,0,0.05,14.950000000000001,0)" xlink:href="#bz"/><use transform="matrix(0.05,0,0,0.05,23.950000000000003,0)" xlink:href="#bA"/><use transform="matrix(0.05,0,0,0.05,35.95,0)" xlink:href="#bB"/><use transform="matrix(0.05,0,0,0.05,49.95,0)" xlink:href="#bC"/></g><path d="M160-131c35 5 61 23 61 61C221 17 115-2 30 0v-248c76 3 177-17 177 60 0 33-19 50-47 57zm-97-11c50-1 110 9 110-42 0-47-63-36-110-37v79zm0 115c55-2 124 14 124-45 0-56-70-42-124-44v89" id="bD"/><g id="I"><use transform="matrix(0.05,0,0,0.05,0,0)" xlink:href="#bs"/><use transform="matrix(0.05,0,0,0.05,12.950000000000001,0)" xlink:href="#bD"/></g><filter id="G" filterUnits="objectBoundingBox" x="-.05" y="-.04" width="1.11" height="1.11"><feOffset result="offOut" in="SourceAlpha" dy="2"/><feGaussianBlur result="blurOut" in="offOut" stdDeviation="3.5"/><feColorMatrix result="colorOut" in="blurOut" values="0 0 0 0 0 0 0 0 0 0 0 0 0 0 0 0 0 0 0.5019607843137255 0"/><feBlend in="SourceGraphic" in2="colorOut"/></filter><path d="M141-36C126-15 110 5 73 4 37 3 15-17 15-53c-1-64 63-63 125-63 3-35-9-54-41-54-24 1-41 7-42 31l-33-3c5-37 33-52 76-52 45 0 72 20 72 64v82c-1 20 7 32 28 27v20c-31 9-61-2-59-35zM48-53c0 20 12 33 32 33 41-3 63-29 60-74-43 2-92-5-92 41" id="bE"/><path d="M143 0L79-87 56-68V0H24v-261h32v163l83-92h37l-77 82L181 0h-38" id="bF"/><g id="J"><use transform="matrix(0.05,0,0,0.05,0,0)" xlink:href="#bD"/><use transform="matrix(0.05,0,0,0.05,12,0)" xlink:href="#bE"/><use transform="matrix(0.05,0,0,0.05,22,0)" xlink:href="#bw"/><use transform="matrix(0.05,0,0,0.05,31,0)" xlink:href="#bF"/></g><path d="M135-143c-3-34-86-38-87 0 15 53 115 12 119 90S17 21 10-45l28-5c4 36 97 45 98 0-10-56-113-15-118-90-4-57 82-63 122-42 12 7 21 19 24 35" id="bG"/><g id="K"><use transform="matrix(0.05,0,0,0.05,0,0)" xlink:href="#bD"/><use transform="matrix(0.05,0,0,0.05,12,0)" xlink:href="#bE"/><use transform="matrix(0.05,0,0,0.05,22,0)" xlink:href="#bG"/><use transform="matrix(0.05,0,0,0.05,31,0)" xlink:href="#bm"/><use transform="matrix(0.05,0,0,0.05,36,0)" xlink:href="#bv"/><use transform="matrix(0.05,0,0,0.05,39.95,0)" xlink:href="#bk"/><use transform="matrix(0.05,0,0,0.05,49.95,0)" xlink:href="#bl"/></g><path d="M197 0v-115H63V0H30v-248h33v105h134v-105h34V0h-34" id="bH"/><g id="L"><use transform="matrix(0.05,0,0,0.05,0,0)" xlink:href="#bH"/><use transform="matrix(0.05,0,0,0.05,12.950000000000001,0)" xlink:href="#bk"/><use transform="matrix(0.05,0,0,0.05,22.950000000000003,0)" xlink:href="#bG"/><use transform="matrix(0.05,0,0,0.05,31.950000000000003,0)" xlink:href="#bm"/></g><g id="M"><use transform="matrix(0.04938271604938272,0,0,0.04938271604938272,0,0)" xlink:href="#af"/><use transform="matrix(0.04938271604938272,0,0,0.04938271604938272,11.851851851851853,0)" xlink:href="#aa"/><use transform="matrix(0.04938271604938272,0,0,0.04938271604938272,21.7283950617284,0)" xlink:href="#ai"/><use transform="matrix(0.04938271604938272,0,0,0.04938271604938272,30.617283950617285,0)" xlink:href="#S"/><use transform="matrix(0.04938271604938272,0,0,0.04938271604938272,34.518518518518526,0)" xlink:href="#Z"/><use transform="matrix(0.04938271604938272,0,0,0.04938271604938272,44.39506172839507,0)" xlink:href="#ac"/><use transform="matrix(0.04938271604938272,0,0,0.04938271604938272,48.296296296296305,0)" xlink:href="#W"/></g><path d="M115-194c55 1 70 41 70 98S169 2 115 4C84 4 66-9 55-30l1 105H24l-1-265h31l2 30c10-21 28-34 59-34zm-8 174c40 0 45-34 45-75s-6-73-45-74c-42 0-51 32-51 76 0 43 10 73 51 73" id="bI"/><path d="M24 0v-261h32V0H24" id="bJ"/><g id="N"><use transform="matrix(0.05,0,0,0.05,0,0)" xlink:href="#bq"/><use transform="matrix(0.05,0,0,0.05,12,0)" xlink:href="#bI"/><use transform="matrix(0.05,0,0,0.05,22,0)" xlink:href="#bI"/><use transform="matrix(0.05,0,0,0.05,32,0)" xlink:href="#bJ"/><use transform="matrix(0.05,0,0,0.05,35.95,0)" xlink:href="#bv"/><use transform="matrix(0.05,0,0,0.05,39.900000000000006,0)" xlink:href="#bw"/><use transform="matrix(0.05,0,0,0.05,48.900000000000006,0)" xlink:href="#bE"/><use transform="matrix(0.05,0,0,0.05,58.900000000000006,0)" xlink:href="#bm"/><use transform="matrix(0.05,0,0,0.05,63.900000000000006,0)" xlink:href="#bv"/><use transform="matrix(0.05,0,0,0.05,67.85000000000001,0)" xlink:href="#bk"/><use transform="matrix(0.05,0,0,0.05,77.85000000000001,0)" xlink:href="#bl"/></g><g id="O"><use transform="matrix(0.05,0,0,0.05,0,0)" xlink:href="#bC"/><use transform="matrix(0.05,0,0,0.05,10,0)" xlink:href="#bk"/><use transform="matrix(0.05,0,0,0.05,20,0)" xlink:href="#bE"/><use transform="matrix(0.05,0,0,0.05,30,0)" xlink:href="#bo"/></g><g id="P"><use transform="matrix(0.05,0,0,0.05,0,0)" xlink:href="#bD"/><use transform="matrix(0.05,0,0,0.05,12,0)" xlink:href="#bE"/><use transform="matrix(0.05,0,0,0.05,22,0)" xlink:href="#bJ"/><use transform="matrix(0.05,0,0,0.05,25.950000000000003,0)" xlink:href="#bE"/><use transform="matrix(0.05,0,0,0.05,35.95,0)" xlink:href="#bl"/><use transform="matrix(0.05,0,0,0.05,45.95,0)" xlink:href="#bw"/><use transform="matrix(0.05,0,0,0.05,54.95,0)" xlink:href="#bt"/><use transform="matrix(0.05,0,0,0.05,64.95,0)" xlink:href="#bj"/></g></defs></g></svg>